<svg width="20" height="20" viewBox="0 0 20 20" fill="none" xmlns="http://www.w3.org/2000/svg">
<path d="M10 5.3125C10.8594 5.3125 11.5625 6.01562 11.5625 6.875C11.5625 7.73438 10.8594 8.4375 10 8.4375C9.14062 8.4375 8.4375 7.73438 8.4375 6.875C8.4375 6.01562 9.14062 5.3125 10 5.3125ZM10 12.3438C12.1094 12.3438 14.5312 13.3516 14.6875 13.9062V14.6875H5.3125V13.9141C5.46875 13.3516 7.89062 12.3438 10 12.3438ZM10 3.75C8.27344 3.75 6.875 5.14844 6.875 6.875C6.875 8.60156 8.27344 10 10 10C11.7266 10 13.125 8.60156 13.125 6.875C13.125 5.14844 11.7266 3.75 10 3.75ZM10 10.7812C7.91406 10.7812 3.75 11.8281 3.75 13.9062V16.25H16.25V13.9062C16.25 11.8281 12.0859 10.7812 10 10.7812Z" fill="#4B88FD"/>
</svg>
