<svg width="44" height="44" viewBox="0 0 44 44" fill="none" xmlns="http://www.w3.org/2000/svg">
<path d="M25.8846 36.6869H11.4426C10.485 36.6869 9.56663 36.3065 8.88953 35.6294C8.21242 34.9523 7.83203 34.034 7.83203 33.0764M7.83203 33.0764V11.4133C7.83203 10.4557 8.21242 9.53734 8.88953 8.86023C9.56663 8.18313 10.485 7.80273 11.4426 7.80273H33.1057V16.829M7.83203 33.0764C7.83203 32.1188 8.21242 31.2005 8.88953 30.5234C9.56663 29.8463 10.485 29.4659 11.4426 29.4659H20.4689M27.6899 29.4659L33.1057 24.0501M33.1057 24.0501L38.5215 29.4659M33.1057 24.0501V40.2974" stroke="#4B88FD" stroke-width="2" stroke-linecap="round" stroke-linejoin="round"/>
</svg>
