<svg width="44" height="45" viewBox="0 0 44 45" fill="none" xmlns="http://www.w3.org/2000/svg">
<path d="M14.4443 9.74185C14.4443 9.26302 14.2541 8.8038 13.9155 8.46522C13.5769 8.12664 13.1177 7.93643 12.6389 7.93643H9.02807C8.54925 7.93643 8.09003 8.12664 7.75145 8.46522C7.41287 8.8038 7.22266 9.26302 7.22266 9.74185V35.0177C7.22266 35.4965 7.41287 35.9557 7.75145 36.2943C8.09003 36.6329 8.54925 36.8231 9.02807 36.8231H12.6389C13.1177 36.8231 13.5769 36.6329 13.9155 36.2943C14.2541 35.9557 14.4443 35.4965 14.4443 35.0177M14.4443 9.74185V35.0177M14.4443 9.74185C14.4443 9.26302 14.6345 8.8038 14.9731 8.46522C15.3117 8.12664 15.7709 7.93643 16.2497 7.93643H19.8606C20.3394 7.93643 20.7986 8.12664 21.1372 8.46522C21.4758 8.8038 21.666 9.26302 21.666 9.74185V35.0177C21.666 35.4965 21.4758 35.9557 21.1372 36.2943C20.7986 36.6329 20.3394 36.8231 19.8606 36.8231H16.2497C15.7709 36.8231 15.3117 36.6329 14.9731 36.2943C14.6345 35.9557 14.4443 35.4965 14.4443 35.0177M7.22266 15.1581H14.4443M14.4443 29.6014H21.666M23.4714 16.9635L30.6931 15.1581M27.0822 29.6015L34.1649 27.8322M23.1158 8.94754L27.0588 7.99067C28.0734 7.74694 29.1043 8.3337 29.3733 9.31223L36.0444 33.5373C36.162 33.9808 36.1099 34.4523 35.8982 34.8594C35.6865 35.2664 35.3304 35.5798 34.8997 35.7381L34.6596 35.8121L30.7166 36.769C29.7019 37.0127 28.671 36.426 28.402 35.4474L21.731 11.2224C21.6133 10.7789 21.6654 10.3074 21.8772 9.90032C22.0889 9.49323 22.445 9.17985 22.8756 9.02156L23.1158 8.94754Z" stroke="#4B88FD" stroke-width="2" stroke-linecap="round" stroke-linejoin="round"/>
</svg>
