<svg width="24" height="25" viewBox="0 0 24 25" fill="none" xmlns="http://www.w3.org/2000/svg">
<path d="M12.0884 11.7262C12.1373 11.7751 12.1373 11.8543 12.0884 11.9031C12.0396 11.9519 11.9604 11.9519 11.9116 11.9031C11.8627 11.8543 11.8627 11.7751 11.9116 11.7262C11.935 11.7028 11.9668 11.6896 12 11.6896C12.0332 11.6896 12.065 11.7028 12.0884 11.7262" stroke="#F86F03" stroke-width="1.5" stroke-linecap="round" stroke-linejoin="round"/>
<path fill-rule="evenodd" clip-rule="evenodd" d="M12 4.0625C7.02793 4.0625 2.99625 7.42258 2.99625 11.5627C3.0714 14.061 4.44925 16.3376 6.62776 17.5629C6.41136 18.151 6.11046 18.7044 5.73453 19.2057C5.52703 19.5086 5.53217 19.9092 5.74735 20.2068C5.96254 20.5043 6.3414 20.6346 6.69409 20.5324C7.89692 20.1822 9.02907 19.624 10.0392 18.8829C10.6857 19.0041 11.3422 19.0644 12 19.0629C16.9721 19.0629 21.0037 15.7029 21.0037 11.5627C21.0037 7.42259 16.9721 4.0625 12 4.0625Z" stroke="#F86F03" stroke-width="1.5" stroke-linecap="round" stroke-linejoin="round"/>
<path d="M16.0901 11.7262C16.1389 11.7751 16.1389 11.8543 16.0901 11.9031C16.0413 11.9519 15.9621 11.9519 15.9132 11.9031C15.8644 11.8543 15.8644 11.7751 15.9132 11.7262C15.9367 11.7028 15.9685 11.6896 16.0017 11.6896C16.0348 11.6896 16.0666 11.7028 16.0901 11.7262" stroke="#F86F03" stroke-width="1.5" stroke-linecap="round" stroke-linejoin="round"/>
<path d="M8.08674 11.7262C8.13558 11.7751 8.13558 11.8543 8.08674 11.9031C8.03791 11.9519 7.95873 11.9519 7.90989 11.9031C7.86106 11.8543 7.86105 11.7751 7.90989 11.7262C7.93334 11.7028 7.96515 11.6896 7.99832 11.6896C8.03148 11.6896 8.06329 11.7028 8.08674 11.7262" stroke="#F86F03" stroke-width="1.5" stroke-linecap="round" stroke-linejoin="round"/>
</svg>
