<svg width="40" height="40" viewBox="0 0 40 40" fill="none" xmlns="http://www.w3.org/2000/svg">
<path d="M11.805 36.355C10.575 36.355 9.41 36.0833 8.36333 35.5983L3.33333 36.6667L4.38499 31.6267C3.89666 30.5767 3.62333 29.4067 3.62333 28.1733C3.62333 23.66 7.28166 20 11.7967 20C16.3117 20 19.97 23.66 19.97 28.1733C19.97 32.6867 16.31 36.3467 11.7967 36.3467" stroke="white" stroke-width="1.5" stroke-linecap="round" stroke-linejoin="round"/>
<path d="M11.02 20.0323C10.365 18.6073 10 17.0457 10 15.4007C10 8.70565 15.9967 3.33398 23.3333 3.33398C30.67 3.33398 36.6667 8.70565 36.6667 15.4007C36.6667 19.3573 34.5633 22.8407 31.335 25.0373C31.3367 26.2973 31.3333 27.9957 31.3333 29.779L26.1017 27.2023C25.2067 27.374 24.2817 27.4673 23.3333 27.4673C22.1483 27.4673 21.0033 27.314 19.9067 27.0507" stroke="white" stroke-width="1.5" stroke-linecap="round" stroke-linejoin="round"/>
<path d="M7.99226 28.2744C8.02481 28.307 8.02481 28.3597 7.99226 28.3923C7.95972 28.4248 7.90696 28.4248 7.87441 28.3923C7.84187 28.3597 7.84187 28.307 7.87441 28.2744C7.90696 28.2419 7.95972 28.2419 7.99226 28.2744" stroke="white" stroke-width="1.5" stroke-linecap="round" stroke-linejoin="round"/>
<path d="M11.7423 28.2744C11.7748 28.307 11.7748 28.3597 11.7423 28.3923C11.7097 28.4248 11.657 28.4248 11.6244 28.3923C11.5919 28.3597 11.5919 28.307 11.6244 28.2744C11.657 28.2419 11.7097 28.2419 11.7423 28.2744" stroke="white" stroke-width="1.5" stroke-linecap="round" stroke-linejoin="round"/>
<path d="M15.4923 28.2744C15.5248 28.307 15.5248 28.3597 15.4923 28.3923C15.4597 28.4248 15.407 28.4248 15.3744 28.3923C15.3419 28.3597 15.3419 28.307 15.3744 28.2744C15.407 28.2419 15.4597 28.2419 15.4923 28.2744" stroke="white" stroke-width="1.5" stroke-linecap="round" stroke-linejoin="round"/>
<path d="M23.3333 16.7392C23.3333 15.6442 24.01 15.0508 24.6883 14.5942C25.3517 14.1475 26.015 13.5658 26.015 12.4942C26.015 11.0125 24.815 9.8125 23.3333 9.8125C21.8517 9.8125 20.6517 11.0125 20.6517 12.4942" stroke="white" stroke-width="1.5" stroke-linecap="round" stroke-linejoin="round"/>
<path d="M23.3333 20.7624C23.2417 20.7624 23.1667 20.8374 23.1667 20.929C23.1667 21.0207 23.2417 21.0957 23.3333 21.0957C23.425 21.0957 23.5 21.0207 23.5 20.929C23.5 20.8374 23.425 20.7624 23.3333 20.7624" stroke="white" stroke-width="1.5" stroke-linecap="round" stroke-linejoin="round"/>
</svg>
