<svg width="45" height="44" viewBox="0 0 45 44" fill="none" xmlns="http://www.w3.org/2000/svg">
<path d="M8.10156 25.3247V19.9089C8.10156 16.0786 9.62314 12.4052 12.3316 9.69679C15.04 6.98837 18.7134 5.4668 22.5437 5.4668C26.3739 5.4668 30.0473 6.98837 32.7558 9.69679C35.4642 12.4052 36.9857 16.0786 36.9857 19.9089V25.3247M8.10156 25.3247C8.10156 24.3671 8.48196 23.4488 9.15906 22.7716C9.83616 22.0945 10.7545 21.7141 11.7121 21.7141H13.5173C14.4749 21.7141 15.3933 22.0945 16.0704 22.7716C16.7475 23.4488 17.1279 24.3671 17.1279 25.3247V30.7405C17.1279 31.698 16.7475 32.6164 16.0704 33.2935C15.3933 33.9706 14.4749 34.351 13.5173 34.351H11.7121C10.7545 34.351 9.83616 33.9706 9.15906 33.2935C8.48196 32.6164 8.10156 31.698 8.10156 30.7405V25.3247ZM36.9857 25.3247C36.9857 24.3671 36.6053 23.4488 35.9282 22.7716C35.2511 22.0945 34.3328 21.7141 33.3752 21.7141H31.57C30.6124 21.7141 29.694 22.0945 29.0169 22.7716C28.3398 23.4488 27.9594 24.3671 27.9594 25.3247V30.7405C27.9594 31.698 28.3398 32.6164 29.0169 33.2935C29.694 33.9706 30.6124 34.351 31.57 34.351H33.3752M36.9857 25.3247V30.7405C36.9857 31.698 36.6053 32.6164 35.9282 33.2935C35.2511 33.9706 34.3328 34.351 33.3752 34.351M33.3752 34.351C33.3752 37.3423 28.5263 39.7668 22.5437 39.7668" stroke="#4B88FD" stroke-width="2" stroke-linecap="round" stroke-linejoin="round"/>
</svg>
