<svg width="24" height="24" viewBox="0 0 24 24" fill="none" xmlns="http://www.w3.org/2000/svg">
<g clip-path="url(#clip0_1221_13339)">
<path d="M15.0312 9.34079C15.0312 9.13379 14.8633 8.96679 14.6562 8.96679C14.4492 8.96779 14.2812 9.13579 14.2812 9.34279C14.2812 9.54979 14.4492 9.71779 14.6562 9.71679C14.8633 9.71679 15.0312 9.54879 15.0312 9.34179" stroke="#9E9E9E" stroke-width="1.5" stroke-linecap="round" stroke-linejoin="round"/>
<path fill-rule="evenodd" clip-rule="evenodd" d="M3.5 17.1947L9.223 11.4588C8.417 9.36475 8.849 6.90275 10.534 5.21375C12.814 2.92875 16.511 2.92875 18.79 5.21375C21.07 7.49875 21.07 11.2037 18.79 13.4897C17.089 15.1947 14.601 15.6238 12.499 14.7858L6.798 20.4998H3.5C3.5 20.4998 3.5 17.1947 3.5 17.1947Z" stroke="#9E9E9E" stroke-width="1.5" stroke-linecap="round" stroke-linejoin="round"/>
</g>
<defs>
<clipPath id="clip0_1221_13339">
<rect width="24" height="24" fill="white"/>
</clipPath>
</defs>
</svg>
