<svg width="40" height="40" viewBox="0 0 40 40" fill="none" xmlns="http://www.w3.org/2000/svg">
<g clip-path="url(#clip0_68_1118)">
<path opacity="0.998" fill-rule="evenodd" clip-rule="evenodd" d="M0.95232 0C13.6507 0 26.3491 0 39.0476 0C39.2063 0.5 39.5238 0.833335 39.9999 1C39.9999 13.6666 39.9999 26.3334 39.9999 39C39.5238 39.1666 39.2063 39.5 39.0476 40C26.3491 40 13.6507 40 0.95232 40C0.793591 39.5 0.476129 39.1666 -6.10352e-05 39C-6.10352e-05 26.3334 -6.10352e-05 13.6666 -6.10352e-05 1C0.476129 0.833335 0.793591 0.5 0.95232 0Z" fill="#1E6AFD"/>
<path fill-rule="evenodd" clip-rule="evenodd" d="M6.9043 5.75C15.4757 5.75 24.0472 5.75 32.6186 5.75C32.6186 14.9166 32.6186 24.0834 32.6186 33.25C29.671 33.0886 26.8138 33.2552 24.0472 33.75C20.8725 33.75 17.698 33.75 14.5233 33.75C12.0755 33.256 9.53582 33.0893 6.9043 33.25C6.9043 24.0834 6.9043 14.9166 6.9043 5.75Z" fill="#EAEBF3"/>
<path fill-rule="evenodd" clip-rule="evenodd" d="M6.90475 5.75C6.90475 14.9166 6.90475 24.0834 6.90475 33.25C9.53628 33.0893 12.0759 33.256 14.5238 33.75C11.8254 33.75 9.12699 33.75 6.42856 33.75C6.27132 24.3296 6.43004 14.9963 6.90475 5.75Z" fill="white"/>
<path fill-rule="evenodd" clip-rule="evenodd" d="M32.619 5.75C33.0938 14.9963 33.2525 24.3296 33.0952 33.75C30.0794 33.75 27.0635 33.75 24.0476 33.75C26.8143 33.2552 29.6714 33.0886 32.619 33.25C32.619 24.0834 32.619 14.9166 32.619 5.75Z" fill="white"/>
<path fill-rule="evenodd" clip-rule="evenodd" d="M8.80951 7.75C16.2698 7.75 23.7301 7.75 31.1905 7.75C31.1905 15.75 31.1905 23.75 31.1905 31.75C23.7301 31.75 16.2698 31.75 8.80951 31.75C8.80951 23.75 8.80951 15.75 8.80951 7.75Z" fill="#1E6AFD"/>
<path fill-rule="evenodd" clip-rule="evenodd" d="M29.7619 9.75077C23.2539 9.75077 16.746 9.75077 10.2381 9.75077C10.2381 16.4174 10.2381 23.0841 10.2381 29.7508C17.7156 29.951 22.9537 29.7843 25.9524 29.2508C25.9524 27.2508 25.9524 25.2508 25.9524 23.2508C26.4198 24.9817 26.5786 26.8151 26.4286 28.7508C27.3809 28.7508 28.3333 28.7508 29.2857 28.7508C29.2857 27.0841 29.2857 25.4174 29.2857 23.7508C29.4444 23.7508 29.6032 23.7508 29.7619 23.7508C29.7619 25.9174 29.7619 28.0841 29.7619 30.2508C23.0952 30.2508 16.4286 30.2508 9.7619 30.2508C9.7619 23.2508 9.7619 16.2508 9.7619 9.25077C16.5127 9.08622 23.1793 9.25287 29.7619 9.75077Z" fill="white"/>
<path fill-rule="evenodd" clip-rule="evenodd" d="M26.9043 20.25C28.2328 20.9836 29.0265 22.1502 29.2853 23.75C29.2853 25.4166 29.2853 27.0834 29.2853 28.75C28.3329 28.75 27.3805 28.75 26.4282 28.75C26.5782 26.8143 26.4194 24.9809 25.952 23.25C25.2178 22.8496 24.4241 22.683 23.571 22.75C23.571 24.75 23.571 26.75 23.571 28.75C22.6186 28.75 21.6662 28.75 20.7139 28.75C20.7139 25.9166 20.7139 23.0833 20.7139 20.25C22.7773 20.25 24.8409 20.25 26.9043 20.25Z" fill="#1E6AFD"/>
<path fill-rule="evenodd" clip-rule="evenodd" d="M29.7619 9.75C29.7619 14.4166 29.7619 19.0834 29.7619 23.75C29.6032 23.75 29.4444 23.75 29.2857 23.75C29.0269 22.1502 28.2332 20.9836 26.9048 20.25C24.7762 19.757 22.554 19.5903 20.2381 19.75C20.3817 21.0296 20.223 22.1963 19.7619 23.25C19.1374 21.5943 18.0263 20.4276 16.4286 19.75C19.2894 18.3243 20.3211 15.9909 19.5238 12.75C17.1437 10.5386 14.366 9.7886 11.1905 10.5C10.5574 16.6323 10.5574 22.7157 11.1905 28.75C12.0308 29.2307 12.9831 29.3974 14.0476 29.25C14.0476 27.0833 14.0476 24.9166 14.0476 22.75C15.1059 22.589 15.9789 22.9223 16.6667 23.75C16.904 25.4084 16.9833 27.0751 16.9048 28.75C19.127 29.4167 21.3492 29.4167 23.5714 28.75C23.5714 26.75 23.5714 24.75 23.5714 22.75C24.4245 22.683 25.2182 22.8497 25.9524 23.25C25.9524 25.25 25.9524 27.25 25.9524 29.25C22.9537 29.7836 17.7156 29.9502 10.2381 29.75C10.2381 23.0834 10.2381 16.4166 10.2381 9.75C16.7461 9.75 23.254 9.75 29.7619 9.75Z" fill="#EFF0F5"/>
<path fill-rule="evenodd" clip-rule="evenodd" d="M26.9043 20.25C24.8408 20.25 22.7773 20.25 20.7138 20.25C20.7138 23.0834 20.7138 25.9167 20.7138 28.75C21.6662 28.75 22.6186 28.75 23.571 28.75C21.3487 29.4167 19.1265 29.4167 16.9043 28.75C17.8567 28.75 18.8091 28.75 19.7614 28.75C19.7614 26.9167 19.7614 25.0834 19.7614 23.25C20.2225 22.1963 20.3812 21.0297 20.2376 19.75C22.5535 19.5903 24.7757 19.757 26.9043 20.25Z" fill="white"/>
<path fill-rule="evenodd" clip-rule="evenodd" d="M14.0476 22.75C14.0476 24.9166 14.0476 27.0833 14.0476 29.25C12.9832 29.3973 12.0308 29.2307 11.1905 28.75C11.9842 28.75 12.7778 28.75 13.5714 28.75C13.4206 26.6492 13.5793 24.6492 14.0476 22.75Z" fill="white"/>
<path fill-rule="evenodd" clip-rule="evenodd" d="M23.5718 12.25C24.0479 12.25 24.5241 12.25 25.0003 12.25C25.0003 12.9166 25.0003 13.5833 25.0003 14.25C25.6352 14.25 26.2702 14.25 26.9051 14.25C26.9051 14.75 26.9051 15.25 26.9051 15.75C26.2702 15.75 25.6352 15.75 25.0003 15.75C25.0003 16.4166 25.0003 17.0834 25.0003 17.75C24.5241 17.75 24.0479 17.75 23.5718 17.75C23.5718 17.0834 23.5718 16.4166 23.5718 15.75C22.9368 15.75 22.3019 15.75 21.667 15.75C21.667 15.25 21.667 14.75 21.667 14.25C22.3019 14.25 22.9368 14.25 23.5718 14.25C23.5718 13.5833 23.5718 12.9166 23.5718 12.25Z" fill="#1E6AFD"/>
<path fill-rule="evenodd" clip-rule="evenodd" d="M19.7619 23.25C19.7619 25.0833 19.7619 26.9166 19.7619 28.75C18.8095 28.75 17.8571 28.75 16.9047 28.75C16.9833 27.075 16.9039 25.4084 16.6666 23.75C15.9789 22.9223 15.1059 22.589 14.0476 22.75C13.5793 24.6492 13.4206 26.6492 13.5714 28.75C12.7777 28.75 11.9841 28.75 11.1905 28.75C10.5574 22.7156 10.5574 16.6323 11.1905 10.5C14.3659 9.78856 17.1437 10.5386 19.5238 12.75C20.3211 15.9909 19.2894 18.3242 16.4286 19.75C18.0263 20.4276 19.1374 21.5943 19.7619 23.25Z" fill="#1E6AFD"/>
<path fill-rule="evenodd" clip-rule="evenodd" d="M14.0476 13.7497C16.7663 13.3387 17.4013 14.2553 15.9524 16.4997C15.3366 16.7447 14.7016 16.8281 14.0476 16.7497C14.0476 15.7497 14.0476 14.7497 14.0476 13.7497Z" fill="#EFF0F5"/>
</g>
<defs>
<clipPath id="clip0_68_1118">
<rect width="40" height="40" rx="4" fill="white"/>
</clipPath>
</defs>
</svg>
