<svg width="24" height="25" viewBox="0 0 24 25" fill="none" xmlns="http://www.w3.org/2000/svg">
<path d="M10 18.5664V22.5664H14V18.5664" stroke="white" stroke-width="1.5" stroke-linecap="round" stroke-linejoin="round"/>
<path d="M6 12.5664H7" stroke="white" stroke-width="1.5" stroke-linecap="round" stroke-linejoin="round"/>
<path fill-rule="evenodd" clip-rule="evenodd" d="M17.5 8.56641H6.5C4.567 8.56641 3 10.1334 3 12.0664V17.5664C3 18.1184 3.448 18.5664 4 18.5664H20C20.552 18.5664 21 18.1184 21 17.5664V12.0664C21 10.1334 19.433 8.56641 17.5 8.56641Z" stroke="white" stroke-width="1.5" stroke-linecap="round" stroke-linejoin="round"/>
<path d="M14 5.56641V12.5664" stroke="white" stroke-width="1.5" stroke-linecap="round" stroke-linejoin="round"/>
<rect x="14" y="2.56641" width="5" height="3" stroke="white" stroke-width="1.5" stroke-linecap="round" stroke-linejoin="round"/>
<path d="M13.999 12.1914C13.792 12.1924 13.625 12.3604 13.625 12.5674C13.625 12.7744 13.793 12.9424 14 12.9414C14.207 12.9414 14.375 12.7734 14.375 12.5664C14.375 12.3594 14.207 12.1914 13.999 12.1914" stroke="white" stroke-width="1.5" stroke-linecap="round" stroke-linejoin="round"/>
<path d="M6.5 8.56641C8.433 8.56641 10 10.1334 10 12.0664V18.5664" stroke="white" stroke-width="1.5" stroke-linecap="round" stroke-linejoin="round"/>
</svg>
