<svg width="40" height="40" viewBox="0 0 40 40" fill="none" xmlns="http://www.w3.org/2000/svg">
<path fill-rule="evenodd" clip-rule="evenodd" d="M3.32639 29.1704V28.4934C3.33188 26.5674 4.89184 25.0074 6.81784 25.002H11.5065C13.4325 25.0074 14.9924 26.5674 14.9979 28.4934V29.1704C14.9979 29.6308 14.6247 30.004 14.1642 30.004H4.16007C3.69964 30.004 3.32639 29.6308 3.32639 29.1704Z" stroke="white" stroke-width="1.5" stroke-linecap="round" stroke-linejoin="round"/>
<path fill-rule="evenodd" clip-rule="evenodd" d="M21.4462 14.9978V17.4972C21.4462 17.819 21.6314 18.112 21.922 18.2501C22.2126 18.3883 22.5568 18.3468 22.8063 18.1436L26.6695 14.9978H30.6167C32.4584 14.9978 33.9514 13.5048 33.9514 11.6631V6.66089C33.9514 4.81918 32.4584 3.32617 30.6167 3.32617H20C18.1583 3.32617 16.6653 4.81918 16.6653 6.66089V11.663C16.6653 13.5047 18.1583 14.9977 20 14.9977L21.4462 14.9978Z" stroke="white" stroke-width="1.5" stroke-linecap="round" stroke-linejoin="round"/>
<circle cx="9.16216" cy="17.4988" r="3.33472" stroke="white" stroke-width="1.5" stroke-linecap="round" stroke-linejoin="round"/>
<path fill-rule="evenodd" clip-rule="evenodd" d="M25.0021 35.8403V35.1633C25.0076 33.2373 26.5675 31.6774 28.4935 31.6719H33.1822C35.1082 31.6774 36.6681 33.2373 36.6736 35.1633V35.8403C36.6736 36.3007 36.3004 36.674 35.8399 36.674H25.8358C25.3753 36.674 25.0021 36.3007 25.0021 35.8403Z" stroke="white" stroke-width="1.5" stroke-linecap="round" stroke-linejoin="round"/>
<circle cx="30.8379" cy="24.1687" r="3.33472" stroke="white" stroke-width="1.5" stroke-linecap="round" stroke-linejoin="round"/>
</svg>
