<svg width="40" height="40" viewBox="0 0 40 40" fill="none" xmlns="http://www.w3.org/2000/svg">
<path fill-rule="evenodd" clip-rule="evenodd" d="M17.7183 29.0609L31.8667 14.9126C32.5183 14.2609 33.5733 14.2609 34.2233 14.9126L36.02 16.7092C36.6717 17.3609 36.6717 18.4159 36.02 19.0659L21.8683 33.2176C21.43 33.6559 20.8783 33.9626 20.2767 34.1042L17.53 34.7526C16.7233 34.9426 15.9983 34.2192 16.1867 33.4109L16.83 30.6592C16.9717 30.0542 17.28 29.5009 17.7183 29.0609V29.0609Z" stroke="#4B88FD" stroke-width="1.5" stroke-linecap="round" stroke-linejoin="round"/>
<path d="M29.2167 17.5508L33.3833 21.7174" stroke="#4B88FD" stroke-width="1.5" stroke-linecap="round" stroke-linejoin="round"/>
<path d="M11.6667 35H11.415C6.95166 35 3.33333 31.3817 3.33333 26.9183V26.9183C3.33333 23.725 5.21333 20.83 8.13333 19.5333L14.7333 16.6C16.9233 15.6267 18.3333 13.4567 18.3333 11.0617V11.0617C18.3333 7.71333 15.62 5 12.2717 5H11.6667" stroke="#4B88FD" stroke-width="1.5" stroke-linecap="round" stroke-linejoin="round"/>
</svg>
