<svg width="24" height="25" viewBox="0 0 24 25" fill="none" xmlns="http://www.w3.org/2000/svg">
<path fill-rule="evenodd" clip-rule="evenodd" d="M10.856 13.7108C9.686 12.5408 8.804 11.2308 8.218 9.90177C8.094 9.62077 8.167 9.29177 8.384 9.07477L9.203 8.25677C9.874 7.58577 9.874 6.63677 9.288 6.05077L8.114 4.87677C7.333 4.09577 6.067 4.09577 5.286 4.87677L4.634 5.52877C3.893 6.26977 3.584 7.33877 3.784 8.39877C4.278 11.0118 5.796 13.8728 8.245 16.3218C10.694 18.7708 13.555 20.2888 16.168 20.7828C17.228 20.9828 18.297 20.6738 19.038 19.9328L19.689 19.2818C20.47 18.5008 20.47 17.2348 19.689 16.4538L18.516 15.2808C17.93 14.6948 16.98 14.6948 16.395 15.2808L15.492 16.1848C15.275 16.4018 14.946 16.4748 14.665 16.3508C13.336 15.7638 12.026 14.8808 10.856 13.7108Z" stroke="white" stroke-width="1.5" stroke-linecap="round" stroke-linejoin="round"/>
</svg>
