<svg width="40" height="40" viewBox="0 0 40 40" fill="none" xmlns="http://www.w3.org/2000/svg">
<path d="M27.071 17.9289C30.9763 21.8342 30.9763 28.1658 27.071 32.0711C23.1658 35.9763 16.8341 35.9763 12.9289 32.0711C9.02363 28.1658 9.02363 21.8342 12.9289 17.9289C16.8341 14.0237 23.1658 14.0237 27.071 17.9289" stroke="white" stroke-width="1.5" stroke-linecap="round" stroke-linejoin="round"/>
<path d="M18.3333 23.3327L20 21.666V28.3327" stroke="white" stroke-width="1.5" stroke-linecap="round" stroke-linejoin="round"/>
<path d="M18.3333 28.3333H21.6667" stroke="white" stroke-width="1.5" stroke-linecap="round" stroke-linejoin="round"/>
<path d="M27.55 18.455L33.8133 7.49333C34.4483 6.38167 33.645 5 32.3667 5H26.6817C26.0833 5 25.5317 5.32 25.235 5.84L20 15" stroke="white" stroke-width="1.5" stroke-linecap="round" stroke-linejoin="round"/>
<path d="M12.45 18.455L6.18667 7.49333C5.55167 6.38167 6.35334 5 7.63334 5H13.3183C13.9167 5 14.4683 5.32 14.765 5.84L20 15" stroke="white" stroke-width="1.5" stroke-linecap="round" stroke-linejoin="round"/>
</svg>
