<svg width="93" height="100" viewBox="0 0 93 100" fill="none" xmlns="http://www.w3.org/2000/svg">
<g clip-path="url(#clip0_1502_50762)">
<path d="M48.7964 84.4642L46.9466 55.0913L47.0094 55.0868L49.1101 84.4418C49.0063 84.4508 48.9002 84.4575 48.7964 84.4642ZM43.0588 84.4441L42.7862 84.4217L45.0557 55.0801L45.1574 55.089L43.0567 84.4441H43.0588ZM54.8888 83.5649L48.6774 54.8385L48.8115 54.8071L55.1203 83.5112L54.8866 83.5649H54.8888ZM37.0508 83.5179L36.7826 83.453L43.2514 54.787L43.3509 54.8116L37.0508 83.5179ZM60.6804 81.7596L50.4558 54.2881L50.5293 54.2591L60.9573 81.6477C60.8665 81.6857 60.7734 81.7215 60.6804 81.7596ZM31.2311 81.6678L30.9758 81.5627L41.5184 54.221L41.6136 54.2613L31.2289 81.6678H31.2311ZM66.1995 79.0549L52.0762 53.4984L52.1714 53.4425L66.431 78.9185L66.1995 79.0549ZM25.7358 78.9319C25.6514 78.8804 25.5671 78.8312 25.4827 78.7798L39.9131 53.4067L39.9867 53.4515L25.7358 78.9341V78.9319ZM71.2079 75.5695L53.621 52.4246L53.6751 52.3799L71.4481 75.3727C71.368 75.4376 71.288 75.5047 71.2079 75.5695ZM20.7295 75.4018C20.6408 75.3279 20.5521 75.2563 20.4656 75.1825L38.4333 52.3508L38.4636 52.3754L20.7317 75.404L20.7295 75.4018ZM75.7015 71.3168L54.9537 51.1607L55.0186 51.0869L75.8919 71.1021L75.7015 71.3146V71.3168ZM16.2706 71.1312L16.091 70.9321L37.0443 51.0063L37.1222 51.0913L16.2706 71.1312ZM79.5006 66.4668L56.1284 49.6618L56.1631 49.6104L79.6801 66.1984C79.6217 66.2879 79.5611 66.3774 79.5006 66.4668ZM12.4845 66.2342C12.4282 66.1492 12.372 66.0642 12.3157 65.9791L35.9302 49.541L35.9734 49.6059L12.4845 66.2342ZM82.6073 61.0016L57.0284 48.0802L57.0869 47.9572L82.7133 60.7735L82.6052 61.0016H82.6073ZM9.43397 60.7958C9.3907 60.7019 9.34743 60.6079 9.30416 60.5162L35.0301 47.9124L35.0626 47.9818L9.43397 60.7958ZM84.8573 55.1942L57.7208 46.3017L57.7424 46.2324L84.9504 54.8899C84.9201 54.9906 84.8898 55.0935 84.8573 55.1942ZM7.19909 54.9279C7.17096 54.8317 7.14284 54.7378 7.11471 54.6416L34.3746 46.1586L34.4006 46.2458L7.19909 54.9257V54.9279ZM86.2571 49.0265L58.1275 44.5121L58.1426 44.4047L86.2982 48.7491L86.2571 49.0265ZM5.84691 48.7983C5.83177 48.6977 5.81878 48.5992 5.80364 48.4986L33.983 44.3242L33.996 44.4114L5.84691 48.7983ZM86.7461 42.8275L58.2811 42.5658V42.445H86.7482V42.5032C86.7482 42.6128 86.7482 42.7202 86.7482 42.8275H86.7461ZM33.8597 42.53H5.39258V42.2593L33.8597 42.4114V42.53ZM58.1513 40.6464L58.1426 40.5838L86.2852 36.1543C86.3004 36.2617 86.3155 36.3691 86.3307 36.4787L58.1513 40.6486V40.6464ZM33.996 40.6016L5.83393 36.3042C5.84907 36.2013 5.86422 36.1006 5.87936 36L34.009 40.5211L33.9982 40.6016H33.996ZM57.7727 38.8679L57.7337 38.7337L84.9309 30.0404L85.0023 30.2775L57.7749 38.8679H57.7727ZM34.3919 38.7918L7.17962 30.1477L7.26399 29.8703L34.42 38.6979L34.3919 38.7941V38.7918ZM57.1193 37.1096L57.0696 37.0044L82.6895 24.1725L82.8042 24.4163L57.1193 37.1096ZM35.0496 37.0536L9.40584 24.2732L9.52051 24.0271L35.0994 36.9485L35.0496 37.0536ZM56.2236 35.4832L56.1501 35.3713L79.639 18.7431L79.7775 18.9534L56.2215 35.481L56.2236 35.4832ZM35.9691 35.4071L12.4369 18.8326C12.491 18.7498 12.5472 18.6648 12.6035 18.582L36.0145 35.3288L35.9669 35.4004L35.9691 35.4071ZM55.0467 33.9418L55.0099 33.9016L75.8399 13.8394C75.9135 13.9222 75.9871 14.0027 76.0606 14.0855L55.0467 33.9418ZM37.1114 33.9239L16.2187 13.9222C16.2857 13.8483 16.3506 13.7745 16.4177 13.7007L37.1677 33.8524L37.1114 33.915V33.9239ZM53.7205 32.6622L53.6577 32.6108L71.3897 9.58222C71.4675 9.64485 71.5433 9.70973 71.6212 9.77461L53.7205 32.6622ZM38.4571 32.6309L20.6581 9.65156C20.7382 9.58445 20.8182 9.51958 20.8983 9.4547L38.5112 32.5795L38.4571 32.6242V32.6309ZM52.2298 31.5974L52.1476 31.5482L66.366 6.04762L66.6105 6.19527L52.2298 31.5996V31.5974ZM39.9629 31.5661L25.6709 6.10131C25.7553 6.04986 25.8397 6.00064 25.924 5.95142L40.0343 31.5168L39.9629 31.5593V31.5661ZM50.5813 30.7652L50.5077 30.7339L60.8773 3.32061C60.9703 3.35864 61.0612 3.39667 61.1542 3.4347L50.5813 30.7652ZM41.6028 30.7473L31.138 3.36312C31.2311 3.32509 31.3241 3.28706 31.4193 3.24903L41.672 30.7093L41.6028 30.7383V30.7473ZM48.8613 30.2081L48.7856 30.1903L55.038 1.46383C55.1354 1.4862 55.2328 1.50857 55.3301 1.53318L48.8613 30.1992V30.2081ZM43.3206 30.1992L36.9708 1.49515C37.0703 1.47278 37.1677 1.44817 37.2672 1.4258L43.3898 30.1724L43.3185 30.188L43.3206 30.1992ZM47.0548 29.9196L46.9747 29.9129L49.0322 0.544389C49.1317 0.5511 49.2291 0.560048 49.3286 0.566759L47.0548 29.9084V29.9196ZM45.125 29.9173L42.9788 0.555574C43.0761 0.548863 43.1757 0.539914 43.2752 0.533203L45.205 29.9017L45.125 29.9084V29.9173Z" fill="#FFA534"/>
<path d="M12.6247 78.3108C12.244 78.3108 11.9108 78.1833 11.6274 77.9305C11.344 77.6777 11.2012 77.322 11.2012 76.8656C11.2012 76.4607 11.3375 76.1207 11.6122 75.8455C11.887 75.5703 12.2245 75.4316 12.6226 75.4316C13.0207 75.4316 13.3473 75.5703 13.6156 75.8455C13.8839 76.1207 14.018 76.4607 14.018 76.8656C14.018 77.3153 13.8774 77.6687 13.5961 77.9238C13.3149 78.181 12.9904 78.3085 12.6226 78.3085L12.6247 78.3108Z" fill="#FF890D"/>
<path d="M8.23849 67.0756C8.23849 66.4806 8.42455 65.881 8.79451 65.2703C9.16446 64.6596 9.70533 64.1562 10.4171 63.7558C11.1289 63.3553 11.9575 63.1562 12.9051 63.1562C13.7857 63.1562 14.5645 63.324 15.2395 63.6574C15.9145 63.9929 16.4359 64.447 16.8037 65.022C17.1715 65.5969 17.3554 66.2233 17.3554 66.8967C17.3554 67.4291 17.2516 67.8944 17.0417 68.2948C16.8319 68.6953 16.5831 69.0398 16.2931 69.3306C16.0054 69.6214 15.4862 70.1114 14.7398 70.7981C14.5321 70.9928 14.3676 71.1628 14.2422 71.3082C14.1167 71.4558 14.0258 71.5901 13.9631 71.7109C13.9025 71.8339 13.8549 71.9547 13.8224 72.0755C13.79 72.1986 13.7381 72.4111 13.671 72.7176C13.5563 73.3686 13.1929 73.6929 12.5871 73.6929C12.2712 73.6929 12.0051 73.5855 11.7888 73.373C11.5724 73.1605 11.4642 72.8451 11.4642 72.4267C11.4642 71.901 11.5443 71.4469 11.7022 71.0621C11.8602 70.6773 12.07 70.3395 12.3318 70.0487C12.5936 69.7579 12.9462 69.4134 13.3897 69.0129C13.7792 68.6617 14.0604 68.3977 14.2335 68.221C14.4066 68.0443 14.5515 67.8452 14.6705 67.626C14.7895 67.4067 14.8479 67.1696 14.8479 66.9123C14.8479 66.4112 14.6662 65.9906 14.3049 65.6461C13.9436 65.3016 13.4763 65.1294 12.9051 65.1294C12.2366 65.1294 11.7433 65.3039 11.4275 65.6506C11.1116 65.9973 10.8433 66.5096 10.6248 67.183C10.4171 67.8899 10.0255 68.2434 9.44788 68.2434C9.10821 68.2434 8.82047 68.1203 8.58681 67.872C8.35316 67.626 8.23633 67.3575 8.23633 67.0712L8.23849 67.0756Z" fill="#FF890D"/>
<path d="M80.1337 61.1273C79.7551 61.0982 79.4327 60.9438 79.1666 60.6687C78.9005 60.3935 78.7859 60.0289 78.8205 59.5747C78.8508 59.1721 79.013 58.8432 79.3073 58.5904C79.6015 58.3376 79.9476 58.2258 80.3457 58.2571C80.7373 58.2884 81.0575 58.4517 81.3042 58.747C81.5508 59.0423 81.6611 59.3935 81.6308 59.7962C81.5984 60.2436 81.4318 60.5859 81.1332 60.8186C80.8347 61.0535 80.5015 61.1541 80.1337 61.125V61.1273Z" fill="#FF890D"/>
<path d="M76.5898 49.5785C76.6331 48.9857 76.8624 48.4018 77.2778 47.8224C77.6932 47.243 78.2687 46.7822 79.0065 46.4399C79.7442 46.0976 80.588 45.9634 81.5334 46.0372C82.4118 46.1066 83.1755 46.3348 83.8245 46.7218C84.4736 47.1088 84.9582 47.6032 85.2827 48.205C85.6072 48.8067 85.7435 49.4443 85.6938 50.1177C85.6548 50.6479 85.5164 51.1042 85.2784 51.4868C85.0404 51.8693 84.7656 52.1937 84.4563 52.4621C84.1469 52.7306 83.5952 53.1758 82.799 53.8044C82.5784 53.9811 82.401 54.1377 82.2668 54.2742C82.1327 54.4106 82.0288 54.5381 81.9596 54.6545C81.8904 54.7708 81.8341 54.8894 81.7909 55.0079C81.7476 55.1265 81.6827 55.3368 81.594 55.6366C81.4317 56.2764 81.0466 56.5717 80.4408 56.5247C80.125 56.5001 79.8675 56.3726 79.6685 56.1444C79.4694 55.9162 79.3851 55.5918 79.4154 55.1735C79.4543 54.65 79.5668 54.2026 79.7529 53.8312C79.9389 53.4599 80.1726 53.14 80.4538 52.8715C80.7351 52.6031 81.1137 52.2854 81.5853 51.9208C81.9986 51.6031 82.2993 51.3615 82.4853 51.1959C82.6714 51.0326 82.8315 50.8447 82.9656 50.6367C83.0998 50.4286 83.1755 50.196 83.195 49.9409C83.2317 49.4421 83.0825 49.0081 82.7471 48.6367C82.4118 48.2654 81.9596 48.0573 81.3906 48.0126C80.7243 47.9589 80.2202 48.0953 79.8805 48.4152C79.5408 48.7374 79.2358 49.2251 78.9675 49.8805C78.7101 50.5696 78.2925 50.8895 77.717 50.8447C77.3774 50.8179 77.1004 50.6725 76.8862 50.4085C76.6721 50.1445 76.5747 49.8671 76.5942 49.5808L76.5898 49.5785Z" fill="#FF890D"/>
<path d="M11.6559 24.1246C11.3184 24.1067 11.0306 23.9792 10.7905 23.7399C10.5503 23.5027 10.44 23.1806 10.4616 22.7779C10.479 22.42 10.6174 22.1247 10.8727 21.8943C11.128 21.6639 11.4331 21.5565 11.7857 21.5766C12.134 21.5945 12.4196 21.7332 12.6468 21.9905C12.8718 22.2477 12.9756 22.5564 12.9583 22.9144C12.9388 23.3126 12.7982 23.6191 12.5386 23.8316C12.279 24.0463 11.9847 24.1448 11.6602 24.1269L11.6559 24.1246Z" fill="#FFA534"/>
<path d="M8.27465 13.9638C8.30062 13.438 8.49317 12.9146 8.84798 12.3911C9.20279 11.8698 9.70472 11.447 10.3538 11.1271C11.0006 10.8072 11.7449 10.6685 12.5843 10.7133C13.3653 10.7558 14.0468 10.9415 14.6288 11.2681C15.2108 11.5969 15.6521 12.0242 15.9529 12.5522C16.2536 13.0801 16.3877 13.6416 16.3574 14.2389C16.3336 14.7087 16.2211 15.1181 16.0156 15.4604C15.8122 15.8049 15.5764 16.0979 15.3081 16.3418C15.0399 16.5856 14.5596 16.995 13.8651 17.5677C13.6725 17.7288 13.5189 17.8719 13.4021 17.9972C13.2853 18.1203 13.1966 18.2366 13.1382 18.3417C13.0798 18.4469 13.0322 18.552 12.9975 18.6594C12.9629 18.7668 12.9088 18.9525 12.8353 19.2209C12.7033 19.7914 12.3701 20.062 11.8314 20.033C11.5523 20.0173 11.3208 19.9122 11.1391 19.7131C10.9574 19.514 10.8752 19.2299 10.8946 18.8585C10.9184 18.3932 11.0093 17.995 11.1651 17.6617C11.323 17.3283 11.522 17.0397 11.7665 16.7937C12.011 16.5476 12.3377 16.259 12.7487 15.9257C13.1079 15.6349 13.3697 15.4134 13.5319 15.2635C13.6942 15.1136 13.8305 14.9458 13.9451 14.7579C14.0598 14.57 14.1226 14.362 14.1334 14.136C14.155 13.6931 14.0144 13.3105 13.7093 12.9884C13.4043 12.6662 12.9997 12.4918 12.4934 12.4649C11.9007 12.4336 11.4571 12.5633 11.1629 12.8564C10.8687 13.1495 10.6069 13.5879 10.3841 14.1763C10.1699 14.7915 9.8064 15.0868 9.29582 15.0577C8.99509 15.042 8.74629 14.919 8.54942 14.6886C8.35254 14.4581 8.26167 14.2165 8.27465 13.9615V13.9638Z" fill="#FFA534"/>
<path d="M20.9245 57.7691C20.7103 57.7535 20.5286 57.6662 20.3793 57.5119C20.23 57.3575 20.1651 57.1517 20.1824 56.8944C20.1997 56.6662 20.2906 56.4806 20.4572 56.3374C20.6238 56.1942 20.8185 56.1316 21.0435 56.1495C21.2642 56.1674 21.4459 56.2591 21.5844 56.4269C21.725 56.5946 21.7856 56.7915 21.7683 57.0197C21.7488 57.2725 21.6558 57.4649 21.487 57.5969C21.3182 57.7288 21.13 57.787 20.9223 57.7714L20.9245 57.7691Z" fill="#FF890D"/>
<path d="M18.916 51.2497C18.9398 50.9163 19.0696 50.5852 19.3033 50.2586C19.5369 49.932 19.8615 49.6703 20.279 49.4779C20.6966 49.2833 21.1704 49.2072 21.7047 49.2497C22.2002 49.2877 22.6329 49.4175 22.9985 49.6345C23.3641 49.8515 23.6389 50.1311 23.8228 50.4712C24.0067 50.8112 24.0846 51.1714 24.0565 51.5517C24.0348 51.8514 23.9569 52.1087 23.8228 52.3257C23.6887 52.5427 23.5329 52.7261 23.3598 52.876C23.1846 53.0281 22.873 53.2787 22.4252 53.6344C22.3019 53.7351 22.2002 53.8223 22.1245 53.9006C22.0487 53.9789 21.9903 54.0505 21.9514 54.1154C21.9124 54.1802 21.88 54.2474 21.8562 54.3145C21.8324 54.3816 21.7956 54.5001 21.7459 54.6702C21.655 55.0303 21.4365 55.1981 21.0946 55.1713C20.9172 55.1579 20.7723 55.0863 20.6576 54.9565C20.5451 54.8268 20.4975 54.6456 20.5148 54.4084C20.5365 54.1131 20.5992 53.8603 20.7052 53.6501C20.8112 53.4398 20.941 53.2586 21.1011 53.1064C21.2612 52.9543 21.4733 52.7754 21.7394 52.5695C21.973 52.3906 22.1418 52.2541 22.2456 52.1602C22.3495 52.0684 22.4403 51.9611 22.5161 51.8447C22.5918 51.7262 22.635 51.5964 22.6459 51.451C22.6653 51.1691 22.581 50.9231 22.3927 50.715C22.2023 50.5047 21.9471 50.3884 21.6269 50.3638C21.2504 50.3347 20.967 50.4108 20.7744 50.592C20.5819 50.7732 20.411 51.0506 20.2595 51.4197C20.1146 51.8089 19.8788 51.9901 19.5542 51.9655C19.3617 51.9499 19.2059 51.8693 19.0848 51.7195C18.9636 51.5696 18.9074 51.4152 18.9203 51.2519L18.916 51.2497Z" fill="#FF890D"/>
<path d="M64.4304 61.0367C64.2162 61.021 64.0344 60.9338 63.8852 60.7794C63.7359 60.6251 63.671 60.4193 63.6883 60.162C63.7056 59.9338 63.7965 59.7481 63.963 59.605C64.1296 59.4618 64.3243 59.3991 64.5493 59.417C64.77 59.4349 64.9518 59.5267 65.0902 59.6944C65.2308 59.8622 65.2914 60.0591 65.2741 60.2873C65.2546 60.5401 65.1616 60.7325 64.9929 60.8644C64.8241 60.9964 64.6359 61.0546 64.4282 61.0389L64.4304 61.0367Z" fill="#FF890D"/>
<path d="M62.4219 54.5192C62.4457 54.1859 62.5755 53.8548 62.8091 53.5282C63.0428 53.2016 63.3673 52.9398 63.7849 52.7474C64.2024 52.5528 64.6762 52.4767 65.2106 52.5192C65.706 52.5573 66.1387 52.687 66.5044 52.904C66.87 53.121 67.1448 53.4007 67.3287 53.7407C67.5126 54.0807 67.5904 54.4409 67.5623 54.8212C67.5407 55.121 67.4628 55.3782 67.3287 55.5952C67.1945 55.8122 67.0387 55.9957 66.8657 56.1456C66.6904 56.2977 66.3789 56.5482 65.931 56.9039C65.8077 57.0046 65.706 57.0918 65.6303 57.1701C65.5546 57.2484 65.4962 57.32 65.4572 57.3849C65.4183 57.4498 65.3858 57.5169 65.362 57.584C65.3383 57.6511 65.3015 57.7697 65.2517 57.9397C65.1608 58.2999 64.9423 58.4677 64.6005 58.4408C64.4231 58.4274 64.2781 58.3558 64.1635 58.226C64.051 58.0963 64.0034 57.9151 64.0207 57.678C64.0423 57.3827 64.1051 57.1299 64.2111 56.9196C64.3149 56.7093 64.4469 56.5281 64.607 56.376C64.7671 56.2239 64.9791 56.0449 65.2452 55.8391C65.4789 55.6601 65.6476 55.5236 65.7515 55.4297C65.8553 55.338 65.9462 55.2306 66.0219 55.1143C66.0976 54.9957 66.1409 54.8659 66.1517 54.7205C66.1712 54.4387 66.0868 54.1926 65.8986 53.9845C65.7082 53.7742 65.4529 53.6579 65.1327 53.6333C64.7563 53.6042 64.4729 53.6803 64.2803 53.8615C64.0878 54.0427 63.9168 54.3201 63.7654 54.6892C63.6204 55.0785 63.3846 55.2597 63.0601 55.2351C62.8675 55.2194 62.7118 55.1389 62.5906 54.989C62.4695 54.8391 62.4132 54.6847 62.4262 54.5214L62.4219 54.5192Z" fill="#FF890D"/>
<path d="M80.1112 25.6013C79.8971 25.6013 79.7088 25.5297 79.5487 25.3865C79.3886 25.2433 79.3086 25.0442 79.3086 24.7847C79.3086 24.5565 79.3865 24.3641 79.5401 24.2076C79.6959 24.051 79.8862 23.9727 80.1112 23.9727C80.3362 23.9727 80.5201 24.051 80.6716 24.2076C80.823 24.3641 80.8987 24.5565 80.8987 24.7847C80.8987 25.0375 80.8187 25.2388 80.6608 25.382C80.5028 25.5252 80.3189 25.599 80.1112 25.599V25.6013Z" fill="#FF890D"/>
<path d="M77.6348 19.2574C77.6348 18.9218 77.7386 18.5818 77.9485 18.2373C78.1583 17.8928 78.4634 17.6087 78.8658 17.3827C79.2682 17.1568 79.7355 17.0449 80.2721 17.0449C80.7697 17.0449 81.2088 17.1389 81.5896 17.329C81.9704 17.5169 82.2646 17.7742 82.4723 18.0986C82.68 18.423 82.7839 18.7764 82.7839 19.1567C82.7839 19.4565 82.7254 19.7205 82.6065 19.9464C82.4875 20.1724 82.3468 20.367 82.1846 20.5325C82.0223 20.6958 81.7281 20.9732 81.3062 21.3603C81.1894 21.4699 81.0963 21.5661 81.0249 21.6488C80.9536 21.7316 80.9016 21.8077 80.867 21.877C80.8324 21.9464 80.8064 22.0157 80.787 22.0828C80.7675 22.1522 80.7394 22.273 80.7026 22.4452C80.6377 22.8121 80.4322 22.9956 80.0903 22.9956C79.9129 22.9956 79.7615 22.9352 79.6403 22.8166C79.5192 22.6958 79.4586 22.5191 79.4586 22.2819C79.4586 21.9844 79.504 21.7294 79.5927 21.5124C79.6814 21.2954 79.8004 21.1052 79.9475 20.9397C80.0946 20.7764 80.2937 20.5795 80.5447 20.3536C80.7653 20.1567 80.9233 20.0068 81.0206 19.9062C81.118 19.8055 81.2002 19.6936 81.2673 19.5706C81.3343 19.4476 81.3668 19.3133 81.3668 19.1679C81.3668 18.886 81.2651 18.6467 81.0596 18.452C80.8562 18.2574 80.5923 18.1612 80.2699 18.1612C79.8934 18.1612 79.6144 18.2597 79.437 18.4543C79.2595 18.6511 79.1081 18.9397 78.9848 19.32C78.868 19.7182 78.6473 19.9173 78.3206 19.9173C78.128 19.9173 77.9658 19.848 77.8338 19.7071C77.7018 19.5684 77.6348 19.4162 77.6348 19.2552V19.2574Z" fill="#FF890D"/>
<path d="M92.0703 98.1381C92.0703 98.9099 71.4761 99.5341 46.0703 99.5341C20.6645 99.5341 0.0703125 98.9099 0.0703125 98.1381C0.0703125 97.3663 20.6645 96.7422 46.0703 96.7422C71.4761 96.7422 92.0703 97.3663 92.0703 98.1381Z" fill="#113A8B"/>
<path d="M20.459 31.5728C20.459 28.0539 21.5061 24.4902 23.6004 20.8773C25.6946 17.2666 28.7516 14.2756 32.7692 11.9043C36.7868 9.53527 41.4751 8.34961 46.8319 8.34961C51.81 8.34961 56.2062 9.34064 60.0183 11.3227C63.8304 13.3048 66.7749 15.9982 68.8518 19.4053C70.9288 22.8146 71.9672 26.517 71.9672 30.5169C71.9672 33.6645 71.3744 36.425 70.191 38.7941C69.0054 41.1654 67.5992 43.2101 65.9679 44.9327C64.3366 46.6552 61.4094 49.5522 57.1863 53.6282C56.018 54.7758 55.0834 55.787 54.3781 56.655C53.675 57.5252 53.1514 58.3216 52.8074 59.0442C52.4634 59.7668 52.1973 60.4894 52.0091 61.2119C51.8209 61.9345 51.5374 63.2029 51.1588 65.0172C50.5055 68.8695 48.4631 70.7956 45.0297 70.7956C43.2448 70.7956 41.7412 70.167 40.5231 68.9075C39.3051 67.648 38.695 65.7778 38.695 63.2969C38.695 60.1851 39.1407 57.4917 40.0342 55.2143C40.9277 52.937 42.1111 50.937 43.5888 49.2144C45.0643 47.4919 47.0569 45.445 49.5643 43.0759C51.7624 41.0021 53.3504 39.4361 54.3283 38.3802C55.3062 37.3243 56.1305 36.1499 56.8012 34.8524C57.4719 33.5571 57.8051 32.15 57.8051 30.631C57.8051 27.6668 56.7839 25.168 54.7394 23.13C52.6971 21.0943 50.0598 20.0742 46.8319 20.0742C43.0544 20.0742 40.2722 21.101 38.4873 23.1569C36.7024 25.2128 35.1902 28.2395 33.9548 32.2394C32.7865 36.425 30.5733 38.5167 27.3107 38.5167C25.3874 38.5167 23.7648 37.7852 22.4429 36.3221C21.121 34.8591 20.459 33.2752 20.459 31.5728Z" fill="#0D2D6A"/>
<path d="M45.2307 98.1379C43.0802 98.1379 41.2023 97.3862 39.5992 95.8851C37.9939 94.3818 37.1934 92.2834 37.1934 89.581C37.1934 87.1851 37.9701 85.1695 39.5213 83.5342C41.0725 81.8989 42.9764 81.0801 45.2329 81.0801C47.4894 81.0801 49.3219 81.8989 50.8385 83.5342C52.3551 85.1695 53.1123 87.1851 53.1123 89.581C53.1123 92.2431 52.3183 94.3348 50.7324 95.856C49.1466 97.3773 47.312 98.1379 45.2329 98.1379H45.2307Z" fill="#0D2D6A"/>
<g opacity="0.2">
<path d="M45.6656 83.2383C45.4535 83.0213 45.1312 82.9743 44.8348 82.9586C44.0018 82.9139 43.2381 83.0302 42.4355 83.2696C41.2456 83.7416 40.2309 84.6745 39.6424 85.8445C39.054 87.0145 38.8939 88.4082 39.2032 89.6878C39.3439 90.2694 39.716 90.9227 40.2936 90.8981C40.6766 90.8802 40.973 90.5625 41.2283 90.2672C41.8362 89.5625 42.4441 88.8601 43.0521 88.1554C43.9629 87.1017 44.8781 86.0369 45.566 84.8154C45.8408 84.3233 46.0572 83.641 45.6677 83.2405L45.6656 83.2383Z" fill="white"/>
</g>
<path d="M57.4978 6.63695C55.3192 4.97479 52.2492 5.45353 50.6396 7.70627C49.3977 9.44673 49.3956 11.733 50.46 13.4511L50.0641 14.9186L51.611 14.7464C51.6326 14.7643 51.6521 14.7822 51.6737 14.8001C53.8523 16.4622 56.9223 15.9835 58.532 13.7307C60.1394 11.478 59.6764 8.30358 57.4978 6.63918V6.63695Z" fill="#0D2D6A"/>
<path opacity="0.7" d="M57.4978 6.63695C55.3192 4.97479 52.2492 5.45353 50.6396 7.70627C49.3977 9.44673 49.3956 11.733 50.46 13.4511L50.0641 14.9186L51.611 14.7464C51.6326 14.7643 51.6521 14.7822 51.6737 14.8001C53.8523 16.4622 56.9223 15.9835 58.532 13.7307C60.1394 11.478 59.6764 8.30358 57.4978 6.63918V6.63695Z" fill="white"/>
<path d="M58.0234 6.30859C59.341 7.23698 60.1545 8.88348 60.1069 10.5322" stroke="#0D2D6A" stroke-width="0.5" stroke-linecap="round" stroke-linejoin="round"/>
<path d="M60.0621 11.2871C60.073 11.5377 60.034 11.7927 59.9453 12.0253" stroke="#0D2D6A" stroke-width="0.5" stroke-linecap="round" stroke-linejoin="round"/>
<path d="M54.2682 10.9655C54.3504 10.8201 54.4716 10.6613 54.6295 10.4845C54.7463 10.357 54.8307 10.2497 54.8848 10.1602C54.9389 10.0729 54.967 9.97449 54.967 9.86264C54.967 9.7038 54.9151 9.58076 54.8113 9.48904C54.7074 9.39732 54.5689 9.35034 54.398 9.35034C54.2271 9.35034 54.0865 9.39285 53.9588 9.47562C53.8312 9.55839 53.723 9.67472 53.6343 9.8246L52.9961 9.37048C53.1432 9.09755 53.3423 8.88503 53.5932 8.73738C53.8442 8.5875 54.1427 8.51367 54.4867 8.51367C54.8913 8.51367 55.2137 8.61882 55.4581 8.82686C55.7026 9.03491 55.8238 9.32573 55.8238 9.69709C55.8238 9.87158 55.8 10.0259 55.7524 10.1579C55.7048 10.2899 55.6464 10.4018 55.5793 10.4935C55.5101 10.5852 55.4214 10.6904 55.3132 10.8112C55.1834 10.9521 55.0882 11.0707 55.0276 11.1669C54.967 11.2631 54.9389 11.3794 54.9389 11.5158H54.1427C54.1427 11.2944 54.1838 11.1109 54.2661 10.9655H54.2682ZM54.1838 12.9051C54.0865 12.8044 54.0389 12.6814 54.0389 12.536C54.0389 12.3905 54.0865 12.2697 54.1817 12.1713C54.2769 12.0729 54.398 12.0259 54.5451 12.0259C54.6923 12.0259 54.8134 12.0751 54.9086 12.1713C55.0038 12.2697 55.0514 12.3905 55.0514 12.536C55.0514 12.6814 55.0038 12.8044 54.9065 12.9051C54.8091 13.0057 54.6901 13.0572 54.5451 13.0572C54.4002 13.0572 54.2812 13.0057 54.1838 12.9051Z" fill="#0D2D6A"/>
</g>
<defs>
<clipPath id="clip0_1502_50762">
<rect width="92" height="99" fill="white" transform="translate(0.0703125 0.533203)"/>
</clipPath>
</defs>
</svg>
