<svg width="85" height="85" viewBox="0 0 74 73" fill="none" xmlns="http://www.w3.org/2000/svg">
<path opacity="0.998" fill-rule="evenodd" clip-rule="evenodd" d="M2.2381 0C25.4127 0 48.5873 0 71.7619 0C72.0516 0.9125 72.631 1.52084 73.5 1.825C73.5 24.9416 73.5 48.0584 73.5 71.175C72.631 71.4791 72.0516 72.0875 71.7619 73C48.5873 73 25.4127 73 2.2381 73C1.94842 72.0875 1.36905 71.4791 0.5 71.175C0.5 48.0584 0.5 24.9416 0.5 1.825C1.36905 1.52084 1.94842 0.9125 2.2381 0Z" fill="#1E6AFD"/>
<path fill-rule="evenodd" clip-rule="evenodd" d="M13.0996 10.4941C28.7425 10.4941 44.3853 10.4941 60.0282 10.4941C60.0282 27.2233 60.0282 43.9525 60.0282 60.6816C54.6488 60.387 49.4345 60.6911 44.3853 61.5941C38.5916 61.5941 32.798 61.5941 27.0044 61.5941C22.537 60.6925 17.9021 60.3884 13.0996 60.6816C13.0996 43.9525 13.0996 27.2233 13.0996 10.4941Z" fill="#EAEBF3"/>
<path fill-rule="evenodd" clip-rule="evenodd" d="M13.0992 10.4941C13.0992 27.2233 13.0992 43.9525 13.0992 60.6816C17.9017 60.3884 22.5366 60.6925 27.004 61.5941C22.0793 61.5941 17.1548 61.5941 12.2302 61.5941C11.9432 44.4019 12.2328 27.3685 13.0992 10.4941Z" fill="white"/>
<path fill-rule="evenodd" clip-rule="evenodd" d="M60.0296 10.4941C60.8959 27.3685 61.1856 44.4019 60.8986 61.5941C55.3947 61.5941 49.8907 61.5941 44.3867 61.5941C49.4359 60.6911 54.6502 60.387 60.0296 60.6816C60.0296 43.9525 60.0296 27.2233 60.0296 10.4941Z" fill="white"/>
<path fill-rule="evenodd" clip-rule="evenodd" d="M16.5742 14.1426C30.1893 14.1426 43.8043 14.1426 57.4195 14.1426C57.4195 28.7426 57.4195 43.3426 57.4195 57.9426C43.8043 57.9426 30.1893 57.9426 16.5742 57.9426C16.5742 43.3426 16.5742 28.7426 16.5742 14.1426Z" fill="#1E6AFD"/>
<path fill-rule="evenodd" clip-rule="evenodd" d="M54.8164 17.7959C42.9394 17.7959 31.0625 17.7959 19.1855 17.7959C19.1855 29.9625 19.1855 42.1292 19.1855 54.2959C32.8319 54.6612 42.3915 54.3571 47.864 53.3834C47.864 49.7334 47.864 46.0834 47.864 42.4334C48.7171 45.5924 49.0068 48.9382 48.7331 52.4709C50.4712 52.4709 52.2093 52.4709 53.9474 52.4709C53.9474 49.4292 53.9474 46.3875 53.9474 43.3459C54.237 43.3459 54.5268 43.3459 54.8164 43.3459C54.8164 47.3 54.8164 51.2542 54.8164 55.2084C42.6497 55.2084 30.4831 55.2084 18.3164 55.2084C18.3164 42.4334 18.3164 29.6584 18.3164 16.8834C30.6365 16.5831 42.8032 16.8872 54.8164 17.7959Z" fill="white"/>
<path fill-rule="evenodd" clip-rule="evenodd" d="M49.6023 36.9551C52.0268 38.2938 53.4752 40.4229 53.9475 43.3426C53.9475 46.3842 53.9475 49.4259 53.9475 52.4676C52.2095 52.4676 50.4714 52.4676 48.7333 52.4676C49.007 48.9349 48.7173 45.5891 47.8642 42.4301C46.5243 41.6994 45.0759 41.3953 43.519 41.5176C43.519 45.1676 43.519 48.8176 43.519 52.4676C41.7809 52.4676 40.0428 52.4676 38.3047 52.4676C38.3047 47.2967 38.3047 42.1259 38.3047 36.9551C42.0705 36.9551 45.8365 36.9551 49.6023 36.9551Z" fill="#1E6AFD"/>
<path fill-rule="evenodd" clip-rule="evenodd" d="M54.8146 17.7949C54.8146 26.3116 54.8146 34.8283 54.8146 43.3449C54.5249 43.3449 54.2352 43.3449 53.9455 43.3449C53.4732 40.4253 52.0247 38.2962 49.6003 36.9574C45.7156 36.0576 41.66 35.7534 37.4336 36.0449C37.6957 38.3803 37.406 40.5094 36.5645 42.4324C35.4249 39.4108 33.3971 37.2815 30.4812 36.0449C35.7023 33.4429 37.5852 29.1846 36.13 23.2699C31.7864 19.2341 26.7169 17.8654 20.9217 19.1637C19.7663 30.3551 19.7663 41.4572 20.9217 52.4699C22.4552 53.3472 24.1933 53.6513 26.136 53.3824C26.136 49.4283 26.136 45.4741 26.136 41.5199C28.0673 41.2261 29.6606 41.8344 30.9157 43.3449C31.3488 46.3715 31.4937 49.4131 31.3503 52.4699C35.4058 53.6866 39.4613 53.6866 43.5169 52.4699C43.5169 48.8199 43.5169 45.1699 43.5169 41.5199C45.0738 41.3976 46.5223 41.7018 47.8622 42.4324C47.8622 46.0824 47.8622 49.7324 47.8622 53.3824C42.3896 54.3562 32.8301 54.6603 19.1836 54.2949C19.1836 42.1283 19.1836 29.9616 19.1836 17.7949C31.0606 17.7949 42.9375 17.7949 54.8146 17.7949Z" fill="#EFF0F5"/>
<path fill-rule="evenodd" clip-rule="evenodd" d="M49.5996 36.9551C45.8338 36.9551 42.0678 36.9551 38.302 36.9551C38.302 42.1259 38.302 47.2967 38.302 52.4676C40.0401 52.4676 41.7782 52.4676 43.5163 52.4676C39.4607 53.6842 35.4052 53.6842 31.3496 52.4676C33.0877 52.4676 34.8258 52.4676 36.5639 52.4676C36.5639 49.1217 36.5639 45.7759 36.5639 42.4301C37.4053 40.507 37.695 38.3779 37.4329 36.0426C41.6594 35.751 45.715 36.0552 49.5996 36.9551Z" fill="white"/>
<path fill-rule="evenodd" clip-rule="evenodd" d="M26.1401 41.5176C26.1401 45.4717 26.1401 49.4259 26.1401 53.3801C24.1974 53.649 22.4593 53.3449 20.9258 52.4676C22.3742 52.4676 23.8226 52.4676 25.271 52.4676C24.9957 48.6336 25.2854 44.9836 26.1401 41.5176Z" fill="white"/>
<path fill-rule="evenodd" clip-rule="evenodd" d="M43.5192 22.3574C44.3882 22.3574 45.2573 22.3574 46.1263 22.3574C46.1263 23.5741 46.1263 24.7908 46.1263 26.0074C47.285 26.0074 48.4438 26.0074 49.6025 26.0074C49.6025 26.9199 49.6025 27.8324 49.6025 28.7449C48.4438 28.7449 47.285 28.7449 46.1263 28.7449C46.1263 29.9616 46.1263 31.1783 46.1263 32.3949C45.2573 32.3949 44.3882 32.3949 43.5192 32.3949C43.5192 31.1783 43.5192 29.9616 43.5192 28.7449C42.3605 28.7449 41.2017 28.7449 40.043 28.7449C40.043 27.8324 40.043 26.9199 40.043 26.0074C41.2017 26.0074 42.3605 26.0074 43.5192 26.0074C43.5192 24.7908 43.5192 23.5741 43.5192 22.3574Z" fill="#1E6AFD"/>
<path fill-rule="evenodd" clip-rule="evenodd" d="M36.5641 42.4303C36.5641 45.7761 36.5641 49.1219 36.5641 52.4678C34.826 52.4678 33.0879 52.4678 31.3498 52.4678C31.4932 49.411 31.3483 46.3693 30.9153 43.3428C29.6601 41.8322 28.0669 41.2239 26.1355 41.5177C25.2809 44.9838 24.9912 48.6338 25.2665 52.4678C23.818 52.4678 22.3697 52.4678 20.9212 52.4678C19.7658 41.4551 19.7658 30.353 20.9212 19.1615C26.7165 17.8632 31.7859 19.2319 36.1296 23.2678C37.5847 29.1824 35.7018 33.4408 30.4808 36.0428C33.3967 37.2794 35.4244 39.4086 36.5641 42.4303Z" fill="#1E6AFD"/>
<path fill-rule="evenodd" clip-rule="evenodd" d="M26.1367 25.0941C31.0984 24.3439 32.2572 26.0168 29.6129 30.1129C28.4891 30.56 27.3303 30.7121 26.1367 30.5691C26.1367 28.7441 26.1367 26.9191 26.1367 25.0941Z" fill="#EFF0F5"/>
</svg>
