<svg width="40" height="40" viewBox="0 0 40 40" fill="none" xmlns="http://www.w3.org/2000/svg">
<path d="M31.1733 30.4945C32.205 31.5261 32.205 33.1978 31.1733 34.2278C30.1417 35.2595 28.47 35.2595 27.44 34.2278C26.4083 33.1961 26.4083 31.5245 27.44 30.4945C28.4717 29.4628 30.1433 29.4628 31.1733 30.4945" stroke="white" stroke-width="1.5" stroke-linecap="round" stroke-linejoin="round"/>
<path d="M12.84 30.4938C13.8717 31.5255 13.8717 33.1972 12.84 34.2272C11.8083 35.2588 10.1367 35.2588 9.10668 34.2272C8.07668 33.1955 8.07502 31.5238 9.10668 30.4938C10.1383 29.4638 11.8083 29.4622 12.84 30.4938" stroke="white" stroke-width="1.5" stroke-linecap="round" stroke-linejoin="round"/>
<path d="M16.6667 6.66797H23.3333C24.2533 6.66797 25 7.41464 25 8.33464V25.0013H3.33334" stroke="white" stroke-width="1.5" stroke-linecap="round" stroke-linejoin="round"/>
<path d="M8.33334 32.3613H5.00001C4.08001 32.3613 3.33334 31.6146 3.33334 30.6946V21.668" stroke="white" stroke-width="1.5" stroke-linecap="round" stroke-linejoin="round"/>
<path d="M25 11.668H32.205C32.8867 11.668 33.5 12.083 33.7517 12.7163L36.4283 19.4063C36.585 19.7996 36.6667 20.2196 36.6667 20.643V30.5563C36.6667 31.4763 35.92 32.223 35 32.223H31.9483" stroke="white" stroke-width="1.5" stroke-linecap="round" stroke-linejoin="round"/>
<path d="M26.6667 32.3665H13.6167" stroke="white" stroke-width="1.5" stroke-linecap="round" stroke-linejoin="round"/>
<path d="M36.6667 23.3346H30V16.668H35.3333" stroke="white" stroke-width="1.5" stroke-linecap="round" stroke-linejoin="round"/>
<path d="M3.33334 6.66732H11.6667" stroke="white" stroke-width="1.5" stroke-linecap="round" stroke-linejoin="round"/>
<path d="M3.33334 11.6673H8.33334" stroke="white" stroke-width="1.5" stroke-linecap="round" stroke-linejoin="round"/>
<path d="M5.00001 16.6673H3.33334" stroke="white" stroke-width="1.5" stroke-linecap="round" stroke-linejoin="round"/>
</svg>
