<svg width="33" height="32" viewBox="0 0 33 32" fill="none" xmlns="http://www.w3.org/2000/svg">
<path d="M11.9035 13.4849C13.2922 14.8736 13.2922 17.1251 11.9035 18.5138C10.5148 19.9025 8.26324 19.9025 6.87454 18.5138C5.48583 17.1251 5.48583 14.8736 6.87454 13.4849C8.26324 12.0962 10.5148 12.0962 11.9035 13.4849" stroke="#909090" stroke-width="1.5" stroke-linecap="round" stroke-linejoin="round"/>
<path d="M26.1252 6.37551C27.5139 7.76422 27.5139 10.0158 26.1252 11.4045C24.7365 12.7932 22.4849 12.7932 21.0962 11.4045C19.7075 10.0158 19.7075 7.76422 21.0962 6.37551C22.4849 4.98681 24.7365 4.98681 26.1252 6.37551" stroke="#909090" stroke-width="1.5" stroke-linecap="round" stroke-linejoin="round"/>
<path d="M26.1252 20.5962C27.5139 21.9849 27.5139 24.2365 26.1252 25.6252C24.7365 27.0139 22.4849 27.0139 21.0962 25.6252C19.7075 24.2365 19.7075 21.9849 21.0962 20.5962C22.4849 19.2075 24.7365 19.2075 26.1252 20.5962" stroke="#909090" stroke-width="1.5" stroke-linecap="round" stroke-linejoin="round"/>
<path d="M12.5537 14.4135L20.447 10.4668" stroke="#909090" stroke-width="1.5" stroke-linecap="round" stroke-linejoin="round"/>
<path d="M12.5537 17.5859L20.447 21.5326" stroke="#909090" stroke-width="1.5" stroke-linecap="round" stroke-linejoin="round"/>
</svg>
