<svg width="24" height="24" viewBox="0 0 24 24" fill="none" xmlns="http://www.w3.org/2000/svg">
<circle cx="12" cy="12" r="11.2727" fill="#3084FE" stroke="#3084FE" stroke-width="1.45455"/>
<path fill-rule="evenodd" clip-rule="evenodd" d="M13.8421 10.1623L10.3444 13.6973L6.36632 11.2091C5.79635 10.8525 5.91491 9.98677 6.55961 9.79823L16.0046 7.03225C16.595 6.85922 17.1421 7.41117 16.9667 8.00344L14.1724 17.4419C13.981 18.0875 13.1202 18.2029 12.767 17.6304L10.3426 13.6979" fill="#3084FE"/>
<path d="M13.8421 10.1623L10.3444 13.6973L6.36632 11.2091C5.79635 10.8525 5.91491 9.98677 6.55961 9.79823L16.0046 7.03225C16.595 6.85922 17.1421 7.41117 16.9667 8.00344L14.1724 17.4419C13.981 18.0875 13.1202 18.2029 12.767 17.6304L10.3426 13.6979" stroke="white" stroke-width="0.916667" stroke-linecap="round" stroke-linejoin="round"/>
</svg>
