<svg width="40" height="40" viewBox="0 0 40 40" fill="none" xmlns="http://www.w3.org/2000/svg">
<path d="M25.3594 17.3795C28.3365 17.2712 30.6996 14.8363 30.7187 11.8572C30.6727 8.94275 28.2739 6.61682 25.3594 6.66077" stroke="#4B88FD" stroke-width="1.5" stroke-linecap="round" stroke-linejoin="round"/>
<path fill-rule="evenodd" clip-rule="evenodd" d="M15.7125 17.3795C18.6896 17.2712 21.0527 14.8363 21.0718 11.8572C21.0258 8.94275 18.627 6.61682 15.7125 6.66077C12.798 6.61682 10.3991 8.94275 10.3531 11.8572C10.3714 14.8366 12.735 17.272 15.7125 17.3795V17.3795Z" stroke="#4B88FD" stroke-width="1.5" stroke-linecap="round" stroke-linejoin="round"/>
<path d="M26.6694 33.3401V30.0054C26.6694 26.3219 23.6834 23.3359 20 23.3359H11.6632C7.97973 23.3359 4.99371 26.3219 4.99371 30.0054V33.3401" stroke="#4B88FD" stroke-width="1.5" stroke-linecap="round" stroke-linejoin="round"/>
<path d="M35.0062 33.3401V28.338C35.0062 25.5754 32.7667 23.3359 30.0042 23.3359" stroke="#4B88FD" stroke-width="1.5" stroke-linecap="round" stroke-linejoin="round"/>
</svg>
