<svg width="307" height="316" viewBox="0 0 307 316" fill="none" xmlns="http://www.w3.org/2000/svg">
<path d="M306.348 115.421C305.191 101.111 305.066 88.4432 299.236 74.8915C294.557 64.0106 289.355 52.9978 282.216 43.4688C260.424 14.3739 226.305 1.40917 190.785 0.0902768C132.541 -2.07931 75.837 35.0542 56.365 90.1511C53.2189 99.0471 48.0501 106.552 42.194 113.614C41.5859 113.245 41.2356 112.256 41.2356 110.548C41.2356 95.341 24.0109 112.348 21.3075 116.489C-13.6178 170.089 -6.10265 258.225 52.1084 292.49C76.0155 306.562 102.507 313.322 129.996 315.518C155.001 317.516 182.087 313.75 200.951 295.813C217.283 280.283 222.862 257.222 236.517 240.156C235.427 242.325 232.664 248.524 232.71 255.851C232.763 264.984 255.851 261.318 279.46 221.005C301.616 183.186 308.985 148.13 306.348 115.415V115.421Z" fill="#F2F6FF"/>
</svg>
