<svg width="488" height="504" viewBox="0 0 488 504" fill="none" xmlns="http://www.w3.org/2000/svg">
<path d="M487.187 184.089C485.346 161.266 485.146 141.061 475.866 119.447C468.417 102.093 460.136 84.5282 448.773 69.33C414.084 22.9255 359.772 2.24754 303.23 0.143986C210.514 -3.31636 120.251 55.9093 89.2545 143.785C84.2463 157.974 76.0185 169.943 66.6965 181.208C65.7285 180.619 65.1708 179.041 65.1708 176.317C65.1708 152.063 37.7519 179.188 33.4486 185.793C-22.1468 271.282 -10.1839 411.852 82.4787 466.502C120.535 488.947 162.705 499.728 206.464 503.231C246.266 506.417 289.383 500.412 319.412 471.803C345.41 447.034 354.29 410.253 376.028 383.033C374.292 386.494 369.894 396.38 369.967 408.066C370.051 422.633 406.803 416.785 444.386 352.49C479.653 292.17 491.385 236.258 487.187 184.079V184.089Z" fill="#F2F6FF"/>
</svg>
