<svg width="24" height="24" viewBox="0 0 24 24" fill="none" xmlns="http://www.w3.org/2000/svg">
<circle cx="12" cy="12" r="11.2727" fill="url(#paint0_linear_963_23703)" stroke="url(#paint1_linear_963_23703)" stroke-width="1.45455"/>
<path d="M9.12561 16.7515L6.42698 17.7685L7.35309 15.0637" stroke="white" stroke-linecap="round" stroke-linejoin="round"/>
<path fill-rule="evenodd" clip-rule="evenodd" d="M12.2951 11.5504C13.3778 12.6328 13.6234 11.3806 14.3128 12.0695C14.9773 12.7339 15.3593 12.867 14.5173 13.7088C14.4118 13.7935 13.7417 14.8133 11.3866 12.4589C9.03128 10.1042 10.0505 9.43338 10.1352 9.32794C10.9793 8.48381 11.1101 8.86801 11.7747 9.53242C12.4641 10.2216 11.2124 10.468 12.2951 11.5504Z" fill="white" stroke="white" stroke-width="0.1" stroke-linecap="round" stroke-linejoin="round"/>
<path d="M9.29396 16.7939C10.6005 17.5851 12.1535 17.8653 13.6542 17.5804C15.1549 17.2956 16.4972 16.4658 17.4229 15.2509C18.3487 14.0359 18.7924 12.5215 18.6688 10.999C18.5452 9.47656 17.8629 8.05359 16.7533 7.00388C15.6437 5.95417 14.185 5.35187 12.6581 5.31286C11.1311 5.27384 9.64364 5.80087 8.48186 6.79255C7.32008 7.78423 6.56605 9.1705 6.36485 10.6847C6.16364 12.1988 6.52947 13.7339 7.39195 14.9946" stroke="white" stroke-linecap="round"/>
<defs>
<linearGradient id="paint0_linear_963_23703" x1="12" y1="0" x2="12" y2="24" gradientUnits="userSpaceOnUse">
<stop stop-color="#00ED4D"/>
<stop offset="1" stop-color="#00D624"/>
</linearGradient>
<linearGradient id="paint1_linear_963_23703" x1="12" y1="0" x2="12" y2="24" gradientUnits="userSpaceOnUse">
<stop stop-color="#00ED4D"/>
<stop offset="1" stop-color="#00D41F"/>
</linearGradient>
</defs>
</svg>
