<svg width="430" height="446" viewBox="0 0 430 446" fill="none" xmlns="http://www.w3.org/2000/svg">
<path d="M227.391 378.113L218.766 245.787L219.058 245.767L228.854 378.013C228.37 378.053 227.876 378.083 227.391 378.113ZM200.637 378.023L199.366 377.922L209.948 245.736L210.423 245.777L200.627 378.023H200.637ZM255.8 374.062L226.836 244.648L227.462 244.507L256.88 373.82L255.79 374.062H255.8ZM172.621 373.85L171.37 373.558L201.535 244.416L201.999 244.527L172.621 373.85ZM282.807 365.929L235.129 242.169L235.472 242.038L284.098 365.425C283.675 365.596 283.241 365.757 282.807 365.929ZM145.483 365.516L144.293 365.042L193.454 241.866L193.898 242.048L145.473 365.516H145.483ZM308.543 353.744L242.685 238.611L243.129 238.359L309.622 353.13L308.543 353.744ZM119.859 353.19C119.465 352.958 119.072 352.736 118.679 352.505L185.968 238.198L186.311 238.399L119.859 353.2V353.19ZM331.897 338.042L249.889 233.774L250.141 233.572L333.017 337.156C332.644 337.448 332.271 337.75 331.897 338.042ZM96.5143 337.287C96.1006 336.954 95.687 336.632 95.2835 336.299L179.068 233.441L179.209 233.552L96.5244 337.297L96.5143 337.287ZM352.851 318.884L256.103 228.079L256.406 227.747L353.739 317.916L352.851 318.874V318.884ZM75.722 318.047L74.8847 317.15L172.591 227.384L172.954 227.767L75.722 318.047ZM370.566 297.034L261.581 221.327L261.742 221.095L371.404 295.825C371.131 296.228 370.849 296.631 370.566 297.034ZM58.0673 295.986C57.805 295.603 57.5427 295.22 57.2804 294.837L167.396 220.783L167.597 221.075L58.0673 295.986ZM385.053 272.413L265.778 214.202L266.05 213.647L385.548 271.385L385.043 272.413H385.053ZM43.8426 271.486C43.6408 271.063 43.4391 270.64 43.2373 270.226L163.199 213.446L163.35 213.758L43.8426 271.486ZM395.545 246.25L269.006 206.19L269.107 205.877L395.979 244.88C395.838 245.333 395.696 245.797 395.545 246.25ZM33.4213 245.051C33.2901 244.618 33.159 244.194 33.0278 243.761L160.142 205.545L160.263 205.938L33.4213 245.041V245.051ZM402.072 218.465L270.903 198.127L270.973 197.643L402.264 217.215L402.072 218.465ZM27.116 217.437C27.0454 216.983 26.9849 216.54 26.9142 216.086L158.316 197.28L158.376 197.674L27.116 217.437ZM404.352 190.538L271.619 189.359V188.815H404.362V189.077C404.362 189.571 404.362 190.054 404.362 190.538H404.352ZM157.741 189.198H24.9974V187.978L157.741 188.664V189.198ZM271.014 180.712L270.973 180.43L402.203 160.475C402.274 160.959 402.345 161.442 402.415 161.936L271.014 180.722V180.712ZM158.376 180.51L27.0555 161.15C27.1261 160.687 27.1967 160.233 27.2673 159.78L158.437 180.148L158.387 180.51H158.376ZM269.248 172.7L269.067 172.095L395.888 132.931L396.221 134L269.258 172.7H269.248ZM160.223 172.357L33.3305 133.415L33.7239 132.165L160.354 171.934L160.223 172.367V172.357ZM266.201 164.778L265.969 164.305L385.437 106.496L385.971 107.595L266.201 164.778ZM163.29 164.526L43.7115 106.95L44.2462 105.841L163.522 164.053L163.29 164.526ZM262.025 157.451L261.682 156.948L371.212 82.0364L371.858 82.9838L262.015 157.441L262.025 157.451ZM167.577 157.109L57.8453 82.4396C58.0975 82.0667 58.3599 81.6837 58.6222 81.3108L167.789 156.756L167.567 157.079L167.577 157.109ZM256.537 150.508L256.365 150.326L353.497 59.945C353.84 60.3179 354.183 60.6808 354.526 61.0536L256.537 150.508ZM172.904 150.427L75.4799 60.3179C75.7926 59.9854 76.0953 59.6528 76.408 59.3202L173.166 150.104L172.904 150.387V150.427ZM250.353 144.743L250.06 144.511L332.745 40.7663C333.108 41.0484 333.461 41.3407 333.824 41.633L250.353 144.743ZM179.179 144.602L96.1814 41.0787C96.5546 40.7763 96.9279 40.4841 97.3012 40.1918L179.431 144.37L179.179 144.572V144.602ZM243.402 139.946L243.018 139.724L309.319 24.8427L310.459 25.5079L243.402 139.956V139.946ZM186.2 139.805L119.556 25.0846C119.95 24.8528 120.343 24.6311 120.737 24.4094L186.533 139.583L186.2 139.774V139.805ZM235.714 136.197L235.371 136.055L283.725 12.5574C284.159 12.7287 284.583 12.9001 285.016 13.0714L235.714 136.197ZM193.847 136.116L145.05 12.7489C145.483 12.5776 145.917 12.4062 146.361 12.2349L194.17 135.945L193.847 136.076V136.116ZM227.694 133.687L227.341 133.607L256.496 4.19252C256.95 4.29331 257.404 4.39409 257.858 4.50495L227.694 133.647V133.687ZM201.858 133.647L172.248 4.33362C172.712 4.23284 173.166 4.12198 173.63 4.0212L202.18 133.526L201.847 133.596L201.858 133.647ZM219.27 132.387L218.897 132.357L228.491 0.0503909C228.955 0.0806255 229.409 0.120938 229.873 0.151173L219.27 132.337V132.387ZM210.271 132.377L200.264 0.100782C200.718 0.0705473 201.182 0.0302346 201.646 0L210.645 132.306L210.271 132.337V132.377Z" fill="#FFA534"/>
<path d="M58.713 350.389C56.9374 350.389 55.3838 349.814 54.0622 348.675C52.7406 347.536 52.0748 345.934 52.0748 343.878C52.0748 342.054 52.7103 340.522 53.9916 339.282C55.2728 338.043 56.8466 337.418 58.7029 337.418C60.5591 337.418 62.0825 338.043 63.3334 339.282C64.5844 340.522 65.2099 342.054 65.2099 343.878C65.2099 345.904 64.5541 347.496 63.2427 348.645C61.9312 349.804 60.4179 350.379 58.7029 350.379L58.713 350.389Z" fill="#FFE0A7"/>
<path d="M38.2637 299.776C38.2637 297.095 39.1313 294.394 40.8564 291.643C42.5816 288.892 45.1037 286.624 48.4228 284.82C51.7418 283.016 55.6057 282.119 60.0244 282.119C64.1304 282.119 67.7623 282.875 70.9099 284.377C74.0574 285.888 76.4887 287.934 78.2038 290.524C79.9188 293.114 80.7763 295.936 80.7763 298.97C80.7763 301.368 80.2921 303.465 79.3135 305.269C78.3349 307.073 77.1748 308.625 75.8229 309.935C74.4812 311.245 72.0599 313.452 68.5794 316.546C67.6109 317.423 66.8442 318.189 66.2591 318.844C65.674 319.509 65.2502 320.114 64.9577 320.658C64.6752 321.212 64.4533 321.757 64.3019 322.301C64.1506 322.855 63.9085 323.813 63.5957 325.193C63.0611 328.126 61.3662 329.587 58.5414 329.587C57.0685 329.587 55.8277 329.104 54.8188 328.146C53.81 327.189 53.3056 325.768 53.3056 323.883C53.3056 321.515 53.6788 319.469 54.4153 317.735C55.1517 316.002 56.1303 314.48 57.351 313.17C58.5717 311.86 60.2161 310.308 62.2843 308.504C64.1002 306.922 65.4117 305.732 66.2187 304.936C67.0258 304.14 67.7017 303.243 68.2566 302.255C68.8115 301.268 69.0838 300.199 69.0838 299.04C69.0838 296.783 68.2364 294.888 66.5517 293.336C64.8669 291.784 62.6878 291.008 60.0244 291.008C56.9071 291.008 54.607 291.794 53.1341 293.356C51.6611 294.918 50.4102 297.226 49.3912 300.26C48.4228 303.445 46.5968 305.037 43.9031 305.037C42.3193 305.037 40.9775 304.483 39.888 303.364C38.7984 302.255 38.2536 301.046 38.2536 299.756L38.2637 299.776Z" fill="#FFE0A7"/>
<path d="M373.522 272.979C371.757 272.848 370.253 272.152 369.013 270.913C367.772 269.673 367.237 268.03 367.398 265.985C367.54 264.171 368.296 262.689 369.668 261.55C371.04 260.411 372.655 259.907 374.511 260.049C376.337 260.19 377.83 260.925 378.98 262.256C380.13 263.586 380.645 265.168 380.503 266.982C380.352 268.998 379.575 270.54 378.183 271.588C376.791 272.646 375.237 273.1 373.522 272.969V272.979Z" fill="#FFF1D3"/>
<path d="M356.997 220.954C357.199 218.284 358.268 215.653 360.205 213.043C362.142 210.433 364.826 208.357 368.266 206.815C371.706 205.273 375.641 204.668 380.049 205.001C384.145 205.313 387.706 206.341 390.733 208.085C393.759 209.828 396.019 212.055 397.533 214.766C399.046 217.477 399.681 220.35 399.449 223.383C399.268 225.772 398.622 227.828 397.512 229.551C396.403 231.274 395.121 232.736 393.679 233.945C392.236 235.155 389.664 237.16 385.951 239.992C384.922 240.788 384.095 241.494 383.469 242.108C382.844 242.723 382.36 243.298 382.037 243.822C381.714 244.346 381.452 244.88 381.25 245.414C381.048 245.948 380.745 246.896 380.332 248.246C379.575 251.128 377.779 252.459 374.955 252.247C373.482 252.136 372.281 251.562 371.353 250.534C370.425 249.506 370.032 248.045 370.173 246.16C370.354 243.802 370.879 241.786 371.747 240.113C372.614 238.44 373.704 236.999 375.015 235.789C376.327 234.58 378.092 233.149 380.291 231.506C382.218 230.075 383.621 228.987 384.488 228.241C385.356 227.505 386.102 226.659 386.728 225.721C387.353 224.784 387.706 223.736 387.797 222.587C387.969 220.34 387.273 218.384 385.709 216.711C384.145 215.038 382.037 214.101 379.383 213.9C376.276 213.658 373.926 214.273 372.342 215.714C370.758 217.165 369.335 219.362 368.084 222.315C366.884 225.419 364.937 226.86 362.253 226.659C360.669 226.538 359.378 225.883 358.379 224.693C357.381 223.504 356.927 222.254 357.017 220.964L356.997 220.954Z" fill="#FFF1D3"/>
<path d="M54.2034 106.283C52.6296 106.202 51.2879 105.628 50.1681 104.549C49.0482 103.481 48.5337 102.03 48.6346 100.216C48.7153 98.6032 49.361 97.2729 50.5514 96.2348C51.7419 95.1968 53.1643 94.713 54.8087 94.8037C56.433 94.8843 57.7646 95.5092 58.8239 96.6682C59.8731 97.8272 60.3574 99.218 60.2767 100.83C60.1859 102.624 59.5301 104.005 58.3195 104.963C57.1089 105.93 55.7369 106.373 54.2236 106.293L54.2034 106.283Z" fill="#FFA534"/>
<path d="M38.4352 60.5086C38.5563 58.1402 39.4542 55.7819 41.1087 53.4237C42.7632 51.0754 45.1037 49.1707 48.1302 47.7295C51.1466 46.2883 54.6171 45.6635 58.5314 45.865C62.1733 46.0565 65.3511 46.893 68.0649 48.3644C70.7787 49.8459 72.8367 51.7708 74.239 54.1493C75.6413 56.5277 76.2668 59.0574 76.1256 61.7482C76.0146 63.8647 75.49 65.709 74.5316 67.2509C73.5833 68.803 72.4836 70.1232 71.2327 71.2217C69.9817 72.3203 67.7421 74.1646 64.5037 76.7446C63.6058 77.4702 62.8896 78.1152 62.3448 78.6796C61.8 79.2339 61.3864 79.758 61.114 80.2316C60.8416 80.7053 60.6197 81.179 60.4582 81.6627C60.2968 82.1465 60.0446 82.983 59.7016 84.1924C59.0862 86.7623 57.5326 87.9818 55.0206 87.8507C53.7192 87.7802 52.6397 87.3065 51.7923 86.4096C50.9449 85.5126 50.5615 84.2327 50.6523 82.5597C50.7633 80.4634 51.187 78.6695 51.9134 77.1679C52.6498 75.6662 53.5779 74.3661 54.7179 73.2575C55.8579 72.1489 57.3813 70.8488 59.2981 69.3472C60.9728 68.037 62.1935 67.0393 62.9501 66.364C63.7067 65.6888 64.3423 64.9329 64.877 64.0864C65.4117 63.2398 65.7042 62.3025 65.7547 61.2846C65.8556 59.2892 65.1998 57.5658 63.7773 56.1145C62.3549 54.6633 60.4683 53.8772 58.1076 53.7562C55.3434 53.6151 53.2753 54.1997 51.9033 55.5199C50.5312 56.8402 49.3105 58.8155 48.2714 61.466C47.2727 64.2376 45.5778 65.5679 43.197 65.4369C41.7947 65.3663 40.6345 64.812 39.7165 63.774C38.7984 62.7359 38.3747 61.6475 38.4352 60.4985V60.5086Z" fill="#FFA534"/>
<path d="M97.4222 257.851C96.4235 257.781 95.576 257.387 94.8799 256.692C94.1838 255.997 93.8812 255.069 93.9619 253.91C94.0426 252.883 94.4663 252.046 95.2431 251.401C96.0199 250.756 96.9279 250.474 97.9771 250.554C99.0061 250.635 99.8535 251.048 100.499 251.804C101.155 252.56 101.437 253.447 101.357 254.475C101.266 255.614 100.832 256.48 100.045 257.075C99.2583 257.67 98.3806 257.932 97.4121 257.861L97.4222 257.851Z" fill="#FFE0A7"/>
<path d="M88.0602 228.483C88.1711 226.982 88.7764 225.49 89.866 224.019C90.9555 222.547 92.4688 221.368 94.4159 220.501C96.3629 219.625 98.5723 219.282 101.064 219.473C103.374 219.645 105.392 220.229 107.097 221.207C108.802 222.184 110.083 223.444 110.941 224.976C111.798 226.508 112.161 228.131 112.03 229.844C111.929 231.194 111.566 232.353 110.941 233.331C110.315 234.308 109.589 235.135 108.782 235.81C107.965 236.495 106.512 237.624 104.424 239.227C103.849 239.68 103.374 240.073 103.021 240.426C102.668 240.779 102.396 241.101 102.214 241.393C102.033 241.686 101.881 241.988 101.77 242.29C101.659 242.593 101.488 243.127 101.256 243.893C100.832 245.515 99.8132 246.271 98.2192 246.15C97.392 246.09 96.716 245.767 96.1813 245.183C95.6567 244.598 95.4348 243.782 95.5155 242.714C95.6164 241.383 95.909 240.244 96.4033 239.297C96.8976 238.35 97.5029 237.533 98.2495 236.848C98.996 236.163 99.9847 235.357 101.226 234.429C102.315 233.623 103.102 233.008 103.586 232.585C104.07 232.172 104.494 231.688 104.847 231.164C105.2 230.63 105.402 230.045 105.453 229.39C105.543 228.12 105.15 227.012 104.272 226.075C103.384 225.127 102.194 224.603 100.701 224.492C98.9456 224.361 97.624 224.704 96.7261 225.52C95.8282 226.337 95.0313 227.586 94.3251 229.249C93.6491 231.003 92.5495 231.819 91.0362 231.708C90.1384 231.638 89.412 231.275 88.8471 230.6C88.2821 229.924 88.0198 229.229 88.0803 228.493L88.0602 228.483Z" fill="#FFE0A7"/>
<path d="M300.29 272.564C299.291 272.493 298.444 272.1 297.748 271.405C297.052 270.71 296.749 269.782 296.83 268.623C296.911 267.595 297.334 266.759 298.111 266.114C298.888 265.469 299.796 265.187 300.845 265.267C301.874 265.348 302.722 265.761 303.367 266.517C304.023 267.273 304.305 268.16 304.225 269.188C304.134 270.327 303.7 271.193 302.913 271.788C302.126 272.383 301.249 272.645 300.28 272.574L300.29 272.564Z" fill="#FFE0A7"/>
<path d="M290.928 243.206C291.039 241.704 291.644 240.213 292.734 238.741C293.824 237.27 295.337 236.091 297.284 235.224C299.231 234.347 301.44 234.005 303.932 234.196C306.242 234.367 308.26 234.952 309.965 235.929C311.67 236.907 312.951 238.167 313.809 239.699C314.666 241.231 315.029 242.853 314.898 244.566C314.797 245.917 314.434 247.076 313.809 248.054C313.183 249.031 312.457 249.858 311.65 250.533C310.833 251.218 309.38 252.347 307.292 253.949C306.717 254.403 306.242 254.796 305.889 255.149C305.536 255.501 305.264 255.824 305.082 256.116C304.901 256.408 304.749 256.711 304.638 257.013C304.527 257.315 304.356 257.849 304.124 258.615C303.7 260.238 302.681 260.994 301.087 260.873C300.26 260.813 299.584 260.49 299.049 259.905C298.525 259.321 298.303 258.505 298.384 257.436C298.484 256.106 298.777 254.967 299.271 254.02C299.756 253.072 300.371 252.256 301.118 251.571C301.864 250.885 302.853 250.079 304.094 249.152C305.183 248.346 305.97 247.731 306.454 247.308C306.939 246.895 307.362 246.411 307.715 245.887C308.068 245.353 308.27 244.768 308.321 244.113C308.411 242.843 308.018 241.734 307.14 240.797C306.253 239.85 305.062 239.326 303.569 239.215C301.814 239.084 300.492 239.427 299.594 240.243C298.696 241.059 297.899 242.309 297.193 243.972C296.517 245.725 295.418 246.542 293.904 246.431C293.006 246.36 292.28 245.998 291.715 245.322C291.15 244.647 290.888 243.952 290.948 243.216L290.928 243.206Z" fill="#FFE0A7"/>
<path d="M373.421 112.937C372.422 112.937 371.545 112.614 370.798 111.969C370.052 111.324 369.678 110.427 369.678 109.258C369.678 108.23 370.042 107.363 370.758 106.658C371.484 105.952 372.372 105.6 373.421 105.6C374.47 105.6 375.328 105.952 376.034 106.658C376.74 107.363 377.093 108.23 377.093 109.258C377.093 110.397 376.72 111.304 375.984 111.949C375.247 112.594 374.39 112.926 373.421 112.926V112.937Z" fill="#FFE0A7"/>
<path d="M361.87 84.354C361.87 82.8423 362.354 81.3104 363.333 79.7584C364.311 78.2064 365.734 76.9264 367.61 75.9085C369.487 74.8906 371.666 74.3867 374.168 74.3867C376.488 74.3867 378.536 74.81 380.312 75.6667C382.087 76.5132 383.459 77.6722 384.428 79.1335C385.396 80.5949 385.88 82.1872 385.88 83.9005C385.88 85.251 385.608 86.4402 385.053 87.4581C384.498 88.476 383.843 89.3528 383.086 90.0986C382.329 90.8343 380.957 92.084 378.99 93.8275C378.445 94.3214 378.011 94.7547 377.679 95.1276C377.346 95.5005 377.103 95.8432 376.942 96.1556C376.781 96.468 376.66 96.7804 376.569 97.0828C376.478 97.3952 376.347 97.9394 376.175 98.7155C375.873 100.368 374.914 101.195 373.32 101.195C372.493 101.195 371.787 100.923 371.222 100.388C370.657 99.8442 370.375 99.048 370.375 97.9798C370.375 96.6394 370.586 95.4904 371 94.5129C371.414 93.5353 371.968 92.6786 372.654 91.9328C373.341 91.1971 374.269 90.3103 375.439 89.2924C376.468 88.4055 377.204 87.7302 377.658 87.2767C378.112 86.8232 378.496 86.3193 378.808 85.765C379.121 85.2107 379.272 84.606 379.272 83.9509C379.272 82.6811 378.798 81.6027 377.84 80.7259C376.892 79.8491 375.661 79.4157 374.158 79.4157C372.402 79.4157 371.101 79.8592 370.274 80.736C369.446 81.6229 368.74 82.9229 368.165 84.6362C367.62 86.4302 366.591 87.3271 365.068 87.3271C364.17 87.3271 363.414 87.0147 362.798 86.3798C362.183 85.7549 361.87 85.0696 361.87 84.344V84.354Z" fill="#FFE0A7"/>
<path d="M95.2532 139.835C95.2532 123.982 100.136 107.927 109.902 91.6507C119.667 75.3845 133.922 61.91 152.656 51.2271C171.391 40.5543 193.252 35.2129 218.231 35.2129C241.445 35.2129 261.944 39.6775 279.72 48.6068C297.496 57.5361 311.226 69.6702 320.911 85.0193C330.596 100.378 335.438 117.058 335.438 135.078C335.438 149.258 332.674 161.694 327.156 172.367C321.627 183.05 315.07 192.261 307.463 200.021C299.856 207.782 286.207 220.833 266.514 239.195C261.066 244.365 256.708 248.921 253.419 252.831C250.141 256.752 247.699 260.339 246.095 263.595C244.491 266.85 243.25 270.105 242.373 273.36C241.495 276.616 240.173 282.33 238.408 290.503C235.361 307.858 225.838 316.535 209.827 316.535C201.504 316.535 194.493 313.703 188.813 308.029C183.133 302.355 180.289 293.93 180.289 282.753C180.289 268.734 182.367 256.6 186.533 246.341C190.7 236.081 196.218 227.071 203.109 219.311C209.989 211.551 219.28 202.329 230.973 191.657C241.223 182.314 248.627 175.259 253.187 170.502C257.747 165.746 261.591 160.454 264.719 154.609C267.846 148.774 269.4 142.435 269.4 135.592C269.4 122.238 264.638 110.981 255.104 101.799C245.581 92.6283 233.283 88.0327 218.231 88.0327C200.617 88.0327 187.643 92.6585 179.32 101.92C170.997 111.182 163.945 124.818 158.185 142.838C152.737 161.694 142.417 171.117 127.203 171.117C118.235 171.117 110.668 167.822 104.504 161.231C98.3403 154.639 95.2532 147.504 95.2532 139.835Z" fill="#407BFF"/>
<path d="M210.766 439.711C200.738 439.711 191.981 436.325 184.505 429.563C177.02 422.79 173.287 413.337 173.287 401.162C173.287 390.369 176.909 381.288 184.142 373.921C191.376 366.554 200.253 362.865 210.776 362.865C221.298 362.865 229.843 366.554 236.915 373.921C243.987 381.288 247.518 390.369 247.518 401.162C247.518 413.155 243.815 422.578 236.42 429.432C229.026 436.285 220.471 439.711 210.776 439.711H210.766Z" fill="#407BFF"/>
<g opacity="0.2">
<path d="M212.793 372.591C211.805 371.614 210.302 371.402 208.919 371.332C205.035 371.13 201.474 371.654 197.731 372.732C192.183 374.859 187.451 379.061 184.707 384.332C181.963 389.603 181.217 395.882 182.659 401.647C183.315 404.267 185.05 407.21 187.744 407.099C189.53 407.018 190.912 405.587 192.102 404.257C194.937 401.082 197.772 397.918 200.607 394.743C204.854 389.996 209.121 385.199 212.329 379.696C213.611 377.479 214.619 374.405 212.803 372.601L212.793 372.591Z" fill="white"/>
</g>
<path d="M267.967 27.4933C257.808 20.0052 243.492 22.162 235.987 32.3107C230.196 40.1515 230.186 50.4514 235.149 58.1915L233.303 64.8028L240.516 64.0268C240.617 64.1074 240.708 64.188 240.809 64.2686C250.968 71.7567 265.283 69.6 272.789 59.4513C280.285 49.3025 278.126 35.0016 267.967 27.5034V27.4933Z" fill="#407BFF"/>
<path opacity="0.7" d="M267.967 27.4933C257.808 20.0052 243.492 22.162 235.987 32.3107C230.196 40.1515 230.186 50.4514 235.149 58.1915L233.303 64.8028L240.516 64.0268C240.617 64.1074 240.708 64.188 240.809 64.2686C250.968 71.7567 265.283 69.6 272.789 59.4513C280.285 49.3025 278.126 35.0016 267.967 27.5034V27.4933Z" fill="white"/>
<path d="M270.418 26.0117C276.562 30.1942 280.356 37.6117 280.134 45.0393" stroke="#407BFF" stroke-width="0.5" stroke-linecap="round" stroke-linejoin="round"/>
<path d="M279.922 48.4453C279.972 49.5741 279.791 50.723 279.377 51.7711" stroke="#407BFF" stroke-width="0.5" stroke-linecap="round" stroke-linejoin="round"/>
<path d="M252.905 46.9949C253.288 46.3398 253.853 45.6243 254.59 44.8281C255.135 44.2536 255.528 43.7699 255.78 43.3668C256.032 42.9737 256.164 42.5303 256.164 42.0264C256.164 41.3108 255.921 40.7565 255.437 40.3433C254.953 39.9301 254.307 39.7185 253.51 39.7185C252.713 39.7185 252.058 39.9099 251.462 40.2828C250.867 40.6557 250.363 41.1798 249.949 41.855L246.973 39.8092C247.659 38.5796 248.587 37.6222 249.757 36.957C250.928 36.2818 252.32 35.9492 253.924 35.9492C255.81 35.9492 257.314 36.4229 258.454 37.3602C259.594 38.2974 260.159 39.6076 260.159 41.2806C260.159 42.0667 260.048 42.7621 259.826 43.3567C259.604 43.9513 259.331 44.4552 259.019 44.8684C258.696 45.2816 258.282 45.7553 257.778 46.2995C257.172 46.9344 256.728 47.4686 256.446 47.9019C256.164 48.3353 256.032 48.8594 256.032 49.4741H252.32C252.32 48.4764 252.512 47.65 252.895 46.9949H252.905ZM252.512 55.7327C252.058 55.2792 251.836 54.7249 251.836 54.0698C251.836 53.4147 252.058 52.8705 252.501 52.4271C252.945 51.9836 253.51 51.772 254.196 51.772C254.882 51.772 255.447 51.9937 255.891 52.4271C256.335 52.8705 256.557 53.4147 256.557 54.0698C256.557 54.7249 256.335 55.2792 255.881 55.7327C255.427 56.1862 254.872 56.418 254.196 56.418C253.52 56.418 252.966 56.1862 252.512 55.7327Z" fill="#407BFF"/>
</svg>
