<svg width="234" height="221" viewBox="0 0 234 221" fill="none" xmlns="http://www.w3.org/2000/svg">
<path d="M89.7022 65.0727C89.7022 72.9664 83.2806 79.3639 75.3628 79.3639C67.4393 79.3639 61.0176 72.9664 61.0176 65.0727C61.0176 57.1789 67.4393 50.7871 75.3628 50.7871C83.2806 50.7871 89.7022 57.1847 89.7022 65.0727Z" fill="#FFA534"/>
<path d="M99.5888 106.216V102.645C99.5888 91.3342 90.2957 82.0762 78.9427 82.0762H71.773C60.42 82.0762 51.127 91.3342 51.127 102.645V106.216H99.5888Z" fill="#FFA534"/>
<path d="M75.3577 98.2192L85.8131 83.2629C83.661 82.5005 81.3478 82.082 78.9426 82.082H75.3577H71.7729C69.3676 82.082 67.0544 82.5005 64.9023 83.2629L75.3577 98.2192Z" fill="white"/>
<path d="M77.6524 86.645H73.0605L73.636 82.0762H77.077L77.6524 86.645Z" fill="#FFA534"/>
<path d="M77.6537 88.3574H75.3578H73.0619L71.1055 92.1352L75.3578 98.2174L79.6102 92.1352L77.6537 88.3574Z" fill="#FFA534"/>
<path d="M169.986 65.0727C169.986 72.9664 163.564 79.3639 155.646 79.3639C147.723 79.3639 141.307 72.9664 141.307 65.0727C141.307 57.1789 147.728 50.7871 155.646 50.7871C163.564 50.7871 169.986 57.1847 169.986 65.0727Z" fill="#1B60E6"/>
<path d="M179.872 106.216V102.645C179.872 91.3342 170.585 82.0762 159.226 82.0762H152.056C140.703 82.0762 131.41 91.3342 131.41 102.645V106.216H179.872Z" fill="#1B60E6"/>
<path d="M155.647 98.2172L166.102 83.261C163.95 82.4986 161.637 82.0801 159.232 82.0801H155.647H152.062C149.657 82.0801 147.343 82.4986 145.191 83.261L155.647 98.2172Z" fill="white"/>
<path d="M157.938 86.645H153.352L153.927 82.0762H157.368L157.938 86.645Z" fill="#1B60E6"/>
<path d="M157.937 88.3574H155.647H153.351L151.395 92.1352L155.647 98.2174L159.893 92.1352L157.937 88.3574Z" fill="#1B60E6"/>
<path d="M129.843 75.3557C129.843 83.2495 123.421 89.647 115.503 89.647C107.586 89.647 101.158 83.2495 101.158 75.3557C101.158 67.462 107.58 61.0645 115.503 61.0645C123.427 61.0645 129.843 67.462 129.843 75.3557Z" fill="#0D2D6A"/>
<path d="M139.729 116.497V112.926C139.729 101.616 130.436 92.3574 119.083 92.3574H111.914C100.561 92.3574 91.2676 101.616 91.2676 112.926V116.497H139.729Z" fill="#0D2D6A"/>
<path d="M115.498 108.495L125.954 93.5383C123.802 92.7759 121.488 92.3574 119.083 92.3574H115.498H111.913C109.508 92.3574 107.195 92.7759 105.043 93.5383L115.498 108.495Z" fill="white"/>
<path d="M117.795 96.9263H113.209L113.779 92.3574H117.22L117.795 96.9263Z" fill="#0D2D6A"/>
<path d="M117.794 98.6426H115.499H113.208L111.252 102.42L115.499 108.497L119.751 102.42L117.794 98.6426Z" fill="#0D2D6A"/>
<path d="M59.4521 124.252V122.377H72.543V124.252H67.0543V139.832H64.9407V124.252H59.4521Z" fill="#4B88FD"/>
<path d="M89.3343 147.713V130.258H99.8684V132.133H91.448V138.031H99.323V139.906H91.448V145.838H100.005V147.713H89.3343Z" fill="#4B88FD"/>
<path d="M123.664 147.713H121.448L127.857 130.258H130.039L136.448 147.713H134.232L129.016 133.02H128.879L123.664 147.713ZM124.482 140.895H133.414V142.77H124.482V140.895Z" fill="#4B88FD"/>
<path d="M154.832 122.377H157.355L163.287 136.866H163.491L169.423 122.377H171.946V139.832H169.969V126.571H169.798L164.344 139.832H162.435L156.98 126.571H156.81V139.832H154.832V122.377Z" fill="#4B88FD"/>
<path d="M95.5227 174L92.3409 162.364H93.7727L96.2045 171.841H96.3182L98.7955 162.364H100.386L102.864 171.841H102.977L105.409 162.364H106.841L103.659 174H102.205L99.6364 164.727H99.5455L96.9773 174H95.5227ZM117.868 168.182C117.868 169.409 117.646 170.47 117.203 171.364C116.76 172.258 116.152 172.947 115.379 173.432C114.607 173.917 113.724 174.159 112.732 174.159C111.739 174.159 110.857 173.917 110.084 173.432C109.311 172.947 108.703 172.258 108.26 171.364C107.817 170.47 107.595 169.409 107.595 168.182C107.595 166.955 107.817 165.894 108.26 165C108.703 164.106 109.311 163.417 110.084 162.932C110.857 162.447 111.739 162.205 112.732 162.205C113.724 162.205 114.607 162.447 115.379 162.932C116.152 163.417 116.76 164.106 117.203 165C117.646 165.894 117.868 166.955 117.868 168.182ZM116.504 168.182C116.504 167.174 116.336 166.324 115.999 165.631C115.665 164.938 115.213 164.413 114.641 164.057C114.072 163.701 113.436 163.523 112.732 163.523C112.027 163.523 111.389 163.701 110.817 164.057C110.249 164.413 109.796 164.938 109.459 165.631C109.125 166.324 108.959 167.174 108.959 168.182C108.959 169.189 109.125 170.04 109.459 170.733C109.796 171.426 110.249 171.951 110.817 172.307C111.389 172.663 112.027 172.841 112.732 172.841C113.436 172.841 114.072 172.663 114.641 172.307C115.213 171.951 115.665 171.426 115.999 170.733C116.336 170.04 116.504 169.189 116.504 168.182ZM120.237 174V162.364H124.169C125.078 162.364 125.824 162.519 126.408 162.83C126.991 163.136 127.423 163.559 127.703 164.097C127.983 164.634 128.124 165.246 128.124 165.932C128.124 166.617 127.983 167.225 127.703 167.756C127.423 168.286 126.993 168.703 126.413 169.006C125.834 169.305 125.093 169.455 124.192 169.455H121.01V168.182H124.146C124.768 168.182 125.268 168.091 125.646 167.909C126.029 167.727 126.305 167.47 126.476 167.136C126.65 166.799 126.737 166.398 126.737 165.932C126.737 165.466 126.65 165.059 126.476 164.71C126.302 164.362 126.023 164.093 125.641 163.903C125.258 163.71 124.752 163.614 124.124 163.614H121.646V174H120.237ZM125.714 168.773L128.578 174H126.942L124.124 168.773H125.714ZM130.472 174V162.364H131.881V168.136H132.017L137.244 162.364H139.085L134.199 167.614L139.085 174H137.381L133.335 168.591L131.881 170.227V174H130.472Z" fill="#1B60E6"/>
<path d="M141.473 40.4585C141.473 44.5286 138.13 47.8593 134.044 47.8593H96.6767C92.5912 47.8593 89.248 44.5286 89.248 40.4585V18.2621C89.248 14.1919 92.5912 10.8613 96.6767 10.8613H134.044C138.13 10.8613 141.473 14.1919 141.473 18.2621V40.4585Z" fill="#1B60E6"/>
<path d="M89.2539 40.459C89.2539 44.5291 92.5971 47.8597 96.6826 47.8597H134.05C138.136 47.8597 141.479 44.5291 141.479 40.459H89.2539Z" fill="#FFA534"/>
<path d="M122.018 47.8574H108.709V51.8645H122.018V47.8574Z" fill="#1B60E6"/>
<path d="M122.018 51.8652H115.654H115.078H108.708L103.443 54.9494H115.078H115.654H127.283L122.018 51.8652Z" fill="#1B60E6"/>
<path d="M136.927 36.1805C136.927 36.8455 136.368 37.3901 135.689 37.3901H95.0418C94.3628 37.3901 93.8047 36.8455 93.8047 36.1805V16.5924C93.8047 15.9274 94.3628 15.3828 95.0418 15.3828H135.689C136.368 15.3828 136.927 15.9274 136.927 16.5924V36.1805Z" fill="#0D2D6A"/>
<path d="M133.859 19.3379H110.336V20.5704H133.859V19.3379Z" fill="#BBE4EA"/>
<path d="M133.859 23.6543H110.336V24.8868H133.859V23.6543Z" fill="#BBE4EA"/>
<path d="M133.853 27.9727H96.8711V29.2052H133.853V27.9727Z" fill="#BBE4EA"/>
<path d="M107.395 19.3379H96.8711V24.887H107.395V19.3379Z" fill="#BBE4EA"/>
<path d="M133.853 32.2891H96.8711V33.5216H133.853V32.2891Z" fill="#BBE4EA"/>
<path d="M180.649 37.071H151.395V0.285156H165.061L180.649 15.8089V37.071Z" fill="#FFA534"/>
<path d="M180.649 15.8089L165.061 0.285156V15.8089H180.649Z" fill="#1B60E6"/>
<path d="M175.733 20.4043H156.301V22.5139H175.733V20.4043Z" fill="#1B60E6"/>
<path d="M175.733 25.4199H156.301V27.5295H175.733V25.4199Z" fill="#1B60E6"/>
<path d="M175.733 30.4355H156.301V32.5451H175.733V30.4355Z" fill="#1B60E6"/>
<path d="M76.4001 0.0722656H53.0898V33.6765H76.4001V0.0722656Z" fill="#FFA534"/>
<path d="M73.1025 4.61133H56.3809V6.42856H73.1025V4.61133Z" fill="white"/>
<path d="M73.1025 8.92773H56.3809V10.745H73.1025V8.92773Z" fill="white"/>
<path d="M73.1025 13.2441H56.3809V15.0556H73.1025V13.2441Z" fill="white"/>
<path d="M73.1025 17.5625H56.3809V19.374H73.1025V17.5625Z" fill="white"/>
<path d="M73.1025 21.8789H56.3809V23.6904H73.1025V21.8789Z" fill="white"/>
<path d="M73.1025 26.1953H56.3809V28.0068H73.1025V26.1953Z" fill="white"/>
<path d="M79.4035 34.6C79.4035 35.9586 78.2872 37.065 76.9292 37.065H52.5602C51.1965 37.065 50.0859 35.9529 50.0859 34.6V19.9533C50.0859 18.5947 51.2023 17.4883 52.5602 17.4883H59.6782C61.0419 17.4883 62.1525 18.3195 62.1525 19.3399C62.1525 20.3546 63.2688 21.1915 64.6268 21.1915H76.9235C78.2872 21.1915 79.3978 22.3036 79.3978 23.6565V34.6H79.4035Z" fill="#0D2D6A"/>
<path d="M204.475 54.4912C204.475 48.7128 199.774 44.0293 193.974 44.0293C188.174 44.0293 183.473 48.7128 183.473 54.4912C183.473 57.5868 184.831 60.3614 186.971 62.276C188.306 64.3799 188.559 66.5181 188.559 66.5181H193.968H199.383C199.383 66.5181 199.636 64.3799 200.971 62.276C203.117 60.3614 204.475 57.5868 204.475 54.4912Z" fill="#FFA534"/>
<path d="M200.741 67.345C200.741 67.8036 200.367 68.1705 199.912 68.1705H188.024C187.564 68.1705 187.195 67.7979 187.195 67.345C187.195 66.8864 187.569 66.5195 188.024 66.5195H199.912C200.367 66.5195 200.741 66.8864 200.741 67.345Z" fill="#1B60E6"/>
<path d="M200.741 68.9974C200.741 69.456 200.367 69.8229 199.912 69.8229H188.024C187.564 69.8229 187.195 69.456 187.195 68.9974C187.195 68.5388 187.569 68.1719 188.024 68.1719H199.912C200.367 68.1719 200.741 68.5388 200.741 68.9974Z" fill="#1B60E6"/>
<path d="M200.741 70.6478C200.741 71.1064 200.367 71.4732 199.912 71.4732H188.024C187.564 71.4732 187.195 71.1006 187.195 70.6478C187.195 70.1892 187.569 69.8223 188.024 69.8223H199.912C200.367 69.8223 200.741 70.1949 200.741 70.6478Z" fill="#1B60E6"/>
<path d="M189.555 71.4727C190.027 73.4733 191.822 74.958 193.968 74.958C196.114 74.958 197.916 73.4676 198.382 71.4727H189.555Z" fill="#1B60E6"/>
<path d="M188.789 54.8341C191.861 57.0756 192.305 62.3323 192.351 65.6916C192.356 66.133 193.047 66.133 193.041 65.6916C192.989 62.0228 192.448 56.6514 189.14 54.2437C188.777 53.9743 188.432 54.5762 188.789 54.8341Z" fill="white"/>
<path d="M198.802 54.2393C195.493 56.6527 194.946 62.0183 194.9 65.6872C194.895 66.1286 195.585 66.1286 195.591 65.6872C195.637 62.3279 196.08 57.0712 199.153 54.8297C199.504 54.5775 199.159 53.9756 198.802 54.2393Z" fill="white"/>
<path d="M219.242 18.0886C218.666 18.0886 218.102 18.1459 217.556 18.2548C216.79 13.8694 212.964 10.5273 208.343 10.5273C203.176 10.5273 198.981 14.7006 198.981 19.8542C198.981 20.3071 199.027 20.7542 199.085 21.1899C195.523 21.4937 192.721 24.4689 192.721 28.0976C192.721 31.927 195.839 35.034 199.683 35.034H219.242C223.937 35.034 227.746 31.2391 227.746 26.5613C227.741 21.8835 223.937 18.0886 219.242 18.0886Z" fill="#0D2D6A"/>
<path d="M212.682 25.6155C211.998 26.9053 211.313 28.1951 210.622 29.485C210.622 26.1257 210.622 22.7607 210.622 19.4014C210.622 18.9027 209.851 18.9027 209.851 19.4014C209.851 22.7664 209.851 26.1314 209.851 29.4907C209.161 28.1951 208.476 26.9053 207.791 25.6098C207.556 25.1683 206.888 25.5582 207.124 25.9996C208.039 27.7136 208.948 29.4334 209.863 31.1474C209.897 31.6003 210.605 31.5945 210.628 31.1359C211.537 29.4219 212.447 27.7136 213.361 25.9996C213.58 25.5696 212.913 25.1798 212.682 25.6155Z" fill="white"/>
<path d="M47.1054 46.9707H20.1412C18.3402 46.9707 16.8613 48.4382 16.8613 50.2383V63.1308C16.8613 64.9308 18.3402 66.3983 20.1412 66.3983H30.4815L37.5534 73.4436V66.3983H47.1111C48.9122 66.3983 50.391 64.9308 50.391 63.1308V50.2383C50.3852 48.4382 48.9122 46.9707 47.1054 46.9707Z" fill="#1B60E6"/>
<path d="M46.8107 51.2715H20.4277V52.653H46.8107V51.2715Z" fill="white"/>
<path d="M46.8107 55.6562H20.4277V57.0378H46.8107V55.6562Z" fill="white"/>
<path d="M46.8107 60.043H20.4277V61.4245H46.8107V60.043Z" fill="white"/>
<path d="M27.0301 38.9652C34.7939 38.7509 40.9133 32.307 40.6981 24.5723C40.483 16.8377 34.0148 10.7413 26.251 10.9557C18.4872 11.17 12.3678 17.6139 12.5829 25.3485C12.7981 33.0831 19.2663 39.1795 27.0301 38.9652Z" fill="#FFA534"/>
<path d="M32.7064 19.8748C30.6867 21.801 28.667 23.7271 26.653 25.6532C24.6678 24.759 22.6769 23.8589 20.6917 22.9647C19.7538 22.5405 18.9309 23.9277 19.8746 24.3519C22.0554 25.3322 24.2305 26.3182 26.4114 27.2985C26.7509 27.4533 27.1076 27.4418 27.3896 27.1724C29.5416 25.1201 31.6937 23.0621 33.8458 21.0099C34.5996 20.2933 33.4602 19.1582 32.7064 19.8748Z" fill="white"/>
<path d="M27.4093 13.8443C27.4093 14.2685 27.0641 14.6125 26.6382 14.6125C26.2124 14.6125 25.8672 14.2685 25.8672 13.8443C25.8672 13.4201 26.2124 13.0762 26.6382 13.0762C27.0641 13.0762 27.4093 13.4201 27.4093 13.8443Z" fill="#1B60E6"/>
<path d="M27.4093 36.2232C27.4093 36.6474 27.0641 36.9914 26.6382 36.9914C26.2124 36.9914 25.8672 36.6474 25.8672 36.2232C25.8672 35.799 26.2124 35.4551 26.6382 35.4551C27.0641 35.4608 27.4093 35.8048 27.4093 36.2232Z" fill="#1B60E6"/>
<path d="M37.8765 25.8019C37.4507 25.8019 37.1055 25.458 37.1055 25.0338C37.1055 24.6096 37.4507 24.2656 37.8765 24.2656C38.3023 24.2656 38.6476 24.6096 38.6476 25.0338C38.6418 25.458 38.3023 25.8019 37.8765 25.8019Z" fill="#1B60E6"/>
<path d="M15.4058 25.7961C14.98 25.7961 14.6348 25.4521 14.6348 25.0279C14.6348 24.6037 14.98 24.2598 15.4058 24.2598C15.8316 24.2598 16.1769 24.6037 16.1769 25.0279C16.1769 25.4579 15.8316 25.7961 15.4058 25.7961Z" fill="#1B60E6"/>
<path d="M35.1303 17.6605C34.8311 17.9586 34.342 17.9586 34.0428 17.6605C33.7436 17.3624 33.7436 16.8752 34.0428 16.5771C34.342 16.279 34.8311 16.279 35.1303 16.5771C35.4295 16.8752 35.4295 17.3624 35.1303 17.6605Z" fill="#1B60E6"/>
<path d="M19.2377 33.4887C18.9385 33.7868 18.4494 33.7868 18.1502 33.4887C17.851 33.1906 17.851 32.7033 18.1502 32.4052C18.4494 32.1071 18.9385 32.1071 19.2377 32.4052C19.5427 32.7033 19.5427 33.1906 19.2377 33.4887Z" fill="#1B60E6"/>
<path d="M34.0428 33.4887C33.7436 33.1906 33.7436 32.7033 34.0428 32.4052C34.342 32.1071 34.8311 32.1071 35.1303 32.4052C35.4295 32.7033 35.4295 33.1906 35.1303 33.4887C34.8253 33.7868 34.342 33.7868 34.0428 33.4887Z" fill="#1B60E6"/>
<path d="M18.1502 17.6605C17.851 17.3624 17.851 16.8752 18.1502 16.5771C18.4494 16.279 18.9385 16.279 19.2377 16.5771C19.537 16.8752 19.537 17.3624 19.2377 17.6605C18.9385 17.9586 18.4552 17.9586 18.1502 17.6605Z" fill="#1B60E6"/>
<path d="M233.65 85.1191H197.1V117.072H233.65V85.1191Z" fill="#0D2D6A"/>
<path d="M233.65 85.1191H197.1V93.6091H233.65V85.1191Z" fill="#FFA534"/>
<path d="M203.941 87.1087C203.941 88.0488 203.176 88.8113 202.232 88.8113C201.289 88.8113 200.523 88.0488 200.523 87.1087V83.1303C200.523 82.1902 201.289 81.4277 202.232 81.4277C203.176 81.4277 203.941 82.1902 203.941 83.1303V87.1087Z" fill="#1B60E6"/>
<path d="M217.084 87.1087C217.084 88.0488 216.319 88.8113 215.375 88.8113C214.431 88.8113 213.666 88.0488 213.666 87.1087V83.1303C213.666 82.1902 214.431 81.4277 215.375 81.4277C216.319 81.4277 217.084 82.1902 217.084 83.1303V87.1087Z" fill="#1B60E6"/>
<path d="M230.227 87.1087C230.227 88.0488 229.461 88.8113 228.518 88.8113C227.574 88.8113 226.809 88.0488 226.809 87.1087V83.1303C226.809 82.1902 227.574 81.4277 228.518 81.4277C229.461 81.4277 230.227 82.1902 230.227 83.1303V87.1087Z" fill="#1B60E6"/>
<path d="M204.145 96.1328H200.318V99.945H204.145V96.1328Z" fill="white"/>
<path d="M210.721 96.1328H206.895V99.945H210.721V96.1328Z" fill="white"/>
<path d="M217.293 96.1328H213.467V99.945H217.293V96.1328Z" fill="white"/>
<path d="M223.864 96.1328H220.037V99.945H223.864V96.1328Z" fill="white"/>
<path d="M230.436 96.1328H226.609V99.945H230.436V96.1328Z" fill="white"/>
<path d="M204.145 102.68H200.318V106.492H204.145V102.68Z" fill="white"/>
<path d="M210.721 102.68H206.895V106.492H210.721V102.68Z" fill="white"/>
<path d="M217.293 102.68H213.467V106.492H217.293V102.68Z" fill="white"/>
<path d="M223.864 102.68H220.037V106.492H223.864V102.68Z" fill="white"/>
<path d="M230.436 102.68H226.609V106.492H230.436V102.68Z" fill="white"/>
<path d="M204.145 109.227H200.318V113.039H204.145V109.227Z" fill="white"/>
<path d="M210.721 109.227H206.895V113.039H210.721V109.227Z" fill="white"/>
<path d="M217.293 109.227H213.467V113.039H217.293V109.227Z" fill="white"/>
<path d="M223.864 109.227H220.037V113.039H223.864V109.227Z" fill="white"/>
<path d="M230.436 109.227H226.609V113.039H230.436V109.227Z" fill="white"/>
<path d="M37.6722 84.0078H26.2559V123.001H37.6722V84.0078Z" fill="#0D2D6A"/>
<path d="M34.8401 116.437C34.8401 118.019 33.5512 119.303 31.963 119.303C30.3749 119.303 29.0859 118.019 29.0859 116.437C29.0859 114.854 30.3749 113.57 31.963 113.57C33.5512 113.57 34.8401 114.854 34.8401 116.437Z" fill="white"/>
<path d="M35.4225 88.0898C35.4225 88.4854 35.1003 88.8006 34.709 88.8006H29.2252C28.8282 88.8006 28.5117 88.4796 28.5117 88.0898C28.5117 87.6943 28.8339 87.379 29.2252 87.379H34.709C35.106 87.3732 35.4225 87.6943 35.4225 88.0898Z" fill="white"/>
<path d="M35.4225 91.4159C35.4225 91.8115 35.1003 92.1268 34.709 92.1268H29.2252C28.8282 92.1268 28.5117 91.8057 28.5117 91.4159C28.5117 91.0204 28.8339 90.7051 29.2252 90.7051H34.709C35.106 90.7051 35.4225 91.0204 35.4225 91.4159Z" fill="white"/>
<path d="M35.4225 94.7401C35.4225 95.1357 35.1003 95.451 34.709 95.451H29.2252C28.8282 95.451 28.5117 95.13 28.5117 94.7401C28.5117 94.3446 28.8339 94.0293 29.2252 94.0293H34.709C35.106 94.0293 35.4225 94.3503 35.4225 94.7401Z" fill="white"/>
<path d="M24.8694 84.0078H13.4531V123.001H24.8694V84.0078Z" fill="#1B60E6"/>
<path d="M22.0374 116.437C22.0374 118.019 20.7485 119.303 19.1603 119.303C17.5721 119.303 16.2832 118.019 16.2832 116.437C16.2832 114.854 17.5721 113.57 19.1603 113.57C20.7542 113.57 22.0374 114.854 22.0374 116.437Z" fill="white"/>
<path d="M22.6198 88.0898C22.6198 88.4854 22.2975 88.8006 21.9062 88.8006H16.4225C16.0255 88.8006 15.709 88.4796 15.709 88.0898C15.709 87.6943 16.0312 87.379 16.4225 87.379H21.9062C22.3033 87.3732 22.6198 87.6943 22.6198 88.0898Z" fill="white"/>
<path d="M22.6198 91.4159C22.6198 91.8115 22.2975 92.1268 21.9062 92.1268H16.4225C16.0255 92.1268 15.709 91.8057 15.709 91.4159C15.709 91.0204 16.0312 90.7051 16.4225 90.7051H21.9062C22.3033 90.7051 22.6198 91.0204 22.6198 91.4159Z" fill="white"/>
<path d="M22.6198 94.7401C22.6198 95.1357 22.2975 95.451 21.9062 95.451H16.4225C16.0255 95.451 15.709 95.13 15.709 94.7401C15.709 94.3446 16.0312 94.0293 16.4225 94.0293H21.9062C22.3033 94.0293 22.6198 94.3503 22.6198 94.7401Z" fill="white"/>
<path d="M12.0667 84.0078H0.650391V123.001H12.0667V84.0078Z" fill="#FFA534"/>
<path d="M9.23466 116.437C9.23466 118.019 7.94572 119.303 6.35756 119.303C4.76941 119.303 3.48047 118.019 3.48047 116.437C3.48047 114.854 4.76941 113.57 6.35756 113.57C7.94572 113.57 9.23466 114.854 9.23466 116.437Z" fill="white"/>
<path d="M9.81703 88.0898C9.81703 88.4854 9.4948 88.8006 9.10352 88.8006H3.61977C3.22273 88.8006 2.90625 88.4796 2.90625 88.0898C2.90625 87.6943 3.22848 87.379 3.61977 87.379H9.10352C9.50055 87.3732 9.81703 87.6943 9.81703 88.0898Z" fill="white"/>
<path d="M9.81703 91.4159C9.81703 91.8115 9.4948 92.1268 9.10352 92.1268H3.61977C3.22273 92.1268 2.90625 91.8057 2.90625 91.4159C2.90625 91.0204 3.22848 90.7051 3.61977 90.7051H9.10352C9.50055 90.7051 9.81703 91.0204 9.81703 91.4159Z" fill="white"/>
<path d="M9.81703 94.7401C9.81703 95.1357 9.4948 95.451 9.10352 95.451H3.61977C3.22273 95.451 2.90625 95.13 2.90625 94.7401C2.90625 94.3446 3.22848 94.0293 3.61977 94.0293H9.10352C9.50055 94.0293 9.81703 94.3503 9.81703 94.7401Z" fill="white"/>
<path d="M36.211 136.828C43.07 136.874 48.5998 142.458 48.548 149.297C48.502 156.136 42.8974 161.639 36.0327 161.587C29.1679 161.542 23.6439 155.958 23.6957 149.119C23.7475 142.28 29.352 136.777 36.211 136.828Z" fill="#0D2D6A"/>
<path d="M36.1887 139.953C41.3157 139.988 45.4472 144.161 45.4126 149.269C45.3781 154.382 41.1891 158.492 36.0621 158.458C30.9351 158.424 26.8036 154.25 26.8381 149.143C26.8726 144.029 31.0617 139.919 36.1887 139.953Z" fill="#1B60E6"/>
<path d="M36.1543 145.289C38.3236 145.306 40.0729 147.072 40.0613 149.233C40.0441 151.394 38.2718 153.137 36.1025 153.126C33.9331 153.108 32.1839 151.343 32.1954 149.182C32.2069 147.015 33.9792 145.272 36.1543 145.289Z" fill="#0D2D6A"/>
<path d="M36.1309 148.277C30.2328 148.237 24.3348 148.197 18.4425 148.151L16.6587 144.826H9.63281L11.3878 148.105C11.3821 148.105 11.3821 148.105 11.3763 148.105C10.168 148.099 10.1564 149.963 11.3648 149.968C11.4339 149.968 11.5029 149.968 11.5777 149.968L9.63857 153.591H16.6644L18.5806 150.02C24.4268 150.06 30.2789 150.1 36.1251 150.14C37.3277 150.146 37.3392 148.283 36.1309 148.277Z" fill="#1B60E6"/>
<path d="M205.395 134.316H199.312V152.087H205.395V134.316Z" fill="#FFA534"/>
<path d="M216.436 134.316H210.354V152.087H216.436V134.316Z" fill="#FFA534"/>
<path d="M227.481 134.316H221.398V152.087H227.481V134.316Z" fill="#FFA534"/>
<path d="M213.393 124.705L194.508 132.656H213.393H232.278L213.393 124.705Z" fill="#FFA534"/>
<path d="M232.278 154.314C232.278 154.807 231.76 155.203 231.116 155.203H195.664C195.026 155.203 194.502 154.802 194.502 154.314C194.502 153.821 195.02 153.426 195.664 153.426H231.116C231.76 153.42 232.278 153.821 232.278 154.314Z" fill="#FFA534"/>
<path d="M176.206 181.215H170.498V193.597H176.206V181.215Z" fill="#1B60E6"/>
<path d="M200.96 170.873H195.252V193.591H200.96V170.873Z" fill="#0D2D6A"/>
<path d="M188.583 176.146H182.875V193.596H188.583V176.146Z" fill="#FFA534"/>
<path d="M200.731 159.982C199.188 159.397 195.068 160.83 195.068 160.83L196.34 162.671C193.889 164.31 188.957 167.795 186.506 169.435C186.506 167.469 186.506 165.502 186.506 163.536C186.506 162.957 185.844 162.567 185.344 162.871C178.819 166.775 174.768 170.066 168.242 173.969C167.385 174.48 168.168 175.815 169.025 175.299C175.165 171.625 178.824 168.569 184.964 164.895C184.964 166.89 184.964 168.879 184.964 170.874C184.964 171.43 185.631 171.871 186.126 171.539C188.998 169.618 194.349 165.852 197.22 163.937L198.538 165.841C198.538 165.841 201.277 162.596 201.323 160.905C201.381 160.498 201.11 160.062 200.731 159.982Z" fill="#0D2D6A"/>
<path d="M54.5855 180.132C54.0101 180.132 53.4462 180.189 52.8995 180.298C52.1342 175.912 48.3077 172.57 43.6871 172.57C38.5198 172.57 34.325 176.744 34.325 181.897C34.325 182.35 34.3711 182.791 34.4286 183.233C30.8668 183.537 28.0645 186.512 28.0645 190.141C28.0645 193.97 31.1832 197.077 35.027 197.077H54.5855C59.281 197.077 63.0902 193.282 63.0902 188.604C63.0902 183.921 59.281 180.132 54.5855 180.132Z" fill="#0D2D6A"/>
<path d="M43.1286 186.948C43.8134 185.658 44.4981 184.368 45.1886 183.079C45.1886 186.438 45.1886 189.803 45.1886 193.162C45.1886 193.661 45.9597 193.661 45.9597 193.162C45.9597 189.797 45.9597 186.432 45.9597 183.073C46.6502 184.363 47.3349 185.658 48.0197 186.954C48.2556 187.395 48.9231 187.005 48.6872 186.564C47.7723 184.85 46.8631 183.13 45.9482 181.416C45.9137 180.963 45.2059 180.969 45.1829 181.428C44.2737 183.142 43.3645 184.85 42.4496 186.564C42.231 186.994 42.8985 187.384 43.1286 186.948Z" fill="white"/>
<path d="M83.3092 193.6H147.417C149.218 193.6 150.697 195.073 150.697 196.867V209.76C150.697 211.554 149.223 213.027 147.417 213.027H118.508L111.436 220.073V213.027H83.3092C81.5081 213.027 80.0293 211.554 80.0293 209.76V196.867C80.0293 195.067 81.5081 193.6 83.3092 193.6Z" fill="#FFA534"/>
<path d="M147.124 197.895H83.6035V199.276H147.124V197.895Z" fill="white"/>
<path d="M147.124 202.285H83.6035V203.667H147.124V202.285Z" fill="white"/>
<path d="M147.124 206.672H83.6035V208.053H147.124V206.672Z" fill="white"/>
</svg>
